<?xml version="1.0" encoding="UTF-8"?>
<!DOCTYPE svg PUBLIC "-//W3C//DTD SVG 1.1//EN" "http://www.w3.org/Graphics/SVG/1.1/DTD/svg11.dtd">
<!-- Creator: CorelDRAW X7 -->
<svg xmlns="http://www.w3.org/2000/svg" xml:space="preserve" width="60.96mm" height="60.96mm" version="1.1" style="shape-rendering:geometricPrecision; text-rendering:geometricPrecision; image-rendering:optimizeQuality; fill-rule:evenodd; clip-rule:evenodd"
viewBox="0 0 6096 6096"
 xmlns:xlink="http://www.w3.org/1999/xlink">
 <defs>
  <style type="text/css">
   <![CDATA[
    .fil0 {fill:black}
   ]]>
  </style>
 </defs>
 <g id="Camada_x0020_1">
  <metadata id="CorelCorpID_0Corel-Layer"/>
  <g id="_1631766109344">
   <g id="_2002208928944">
    <path class="fil0" d="M610 3044c0,-736 339,-1412 883,-1855 1141,-930 2661,-708 3538,474 1133,1526 -38,3816 -1988,3816 -588,0 -1129,-236 -1550,-579l-304 -305c-52,-63 -84,-101 -135,-169 -94,-128 -148,-253 -217,-392 -111,-225 -227,-656 -227,-990zm-608 -152c0,1006 256,1683 883,2311 1185,1186 3130,1186 4315,0 1960,-1962 418,-5202 -2005,-5202 -1005,0 -1682,256 -2310,884 -423,424 -883,1179 -883,2007z"/>
    <polygon class="fil0" points="2739,2740 1522,2740 1522,3349 2739,3349 2739,4566 3347,4566 3347,3349 4563,3349 4563,2740 3347,2740 3347,1523 2739,1523 "/>
   </g>
  </g>
 </g>
</svg>
