<?xml version="1.0" encoding="UTF-8"?>
<!DOCTYPE svg PUBLIC "-//W3C//DTD SVG 1.1//EN" "http://www.w3.org/Graphics/SVG/1.1/DTD/svg11.dtd">
<!-- Creator: CorelDRAW X7 -->
<svg xmlns="http://www.w3.org/2000/svg" xml:space="preserve" width="60.96mm" height="60.96mm" version="1.1" style="shape-rendering:geometricPrecision; text-rendering:geometricPrecision; image-rendering:optimizeQuality; fill-rule:evenodd; clip-rule:evenodd"
viewBox="0 0 6096 6096"
 xmlns:xlink="http://www.w3.org/1999/xlink">
 <defs>
  <style type="text/css">
   <![CDATA[
    .fil0 {fill:black}
   ]]>
  </style>
 </defs>
 <g id="Camada_x0020_1">
  <metadata id="CorelCorpID_0Corel-Layer"/>
  <path class="fil0" d="M2272 3839c-867,0 -1569,-703 -1569,-1569 0,-866 702,-1568 1569,-1568 866,0 1568,702 1568,1568 0,866 -702,1569 -1568,1569zm0 702c562,0 1077,-205 1473,-543l95 94 0 269 1344 1344 388 388 523 -523 -1732 -1732 -269 0 -95 -94c339,-397 543,-911 543,-1474 0,-1254 -1016,-2270 -2270,-2270 -1254,0 -2271,1016 -2271,2270 0,1254 1017,2271 2271,2271z"/>
 </g>
</svg>
