<?xml version="1.0" encoding="UTF-8"?>
<!DOCTYPE svg PUBLIC "-//W3C//DTD SVG 1.1//EN" "http://www.w3.org/Graphics/SVG/1.1/DTD/svg11.dtd">
<!-- Creator: CorelDRAW 2017 -->
<svg xmlns="http://www.w3.org/2000/svg" xml:space="preserve" width="16.2558mm" height="16.2558mm" version="1.1" style="shape-rendering:geometricPrecision; text-rendering:geometricPrecision; image-rendering:optimizeQuality; fill-rule:evenodd; clip-rule:evenodd"
viewBox="0 0 1626 1626"
 xmlns:xlink="http://www.w3.org/1999/xlink">
 <defs>
  <style type="text/css">
   <![CDATA[
    .fil0 {fill:white}
   ]]>
  </style>
 </defs>
 <g id="Camada_x0020_1">
  <metadata id="CorelCorpID_0Corel-Layer"/>
  <path class="fil0" d="M813 544c74,0 134,-60 134,-134 0,-74 -60,-134 -134,-134 -74,0 -134,60 -134,134 0,74 60,134 134,134zm0 134c-74,0 -134,60 -134,134 0,74 60,134 134,134 74,0 134,-60 134,-134 0,-74 -60,-134 -134,-134zm0 403c-74,0 -134,60 -134,134 0,74 60,134 134,134 74,0 134,-60 134,-134 0,-74 -60,-134 -134,-134z"/>
 </g>
</svg>
