<?xml version="1.0" encoding="UTF-8"?>
<!DOCTYPE svg PUBLIC "-//W3C//DTD SVG 1.1//EN" "http://www.w3.org/Graphics/SVG/1.1/DTD/svg11.dtd">
<!-- Creator: CorelDRAW X7 -->
<svg xmlns="http://www.w3.org/2000/svg" xml:space="preserve" width="60.96mm" height="60.96mm" version="1.1" style="shape-rendering:geometricPrecision; text-rendering:geometricPrecision; image-rendering:optimizeQuality; fill-rule:evenodd; clip-rule:evenodd"
viewBox="0 0 6096 6096"
 xmlns:xlink="http://www.w3.org/1999/xlink">
 <defs>
  <style type="text/css">
   <![CDATA[
    .fil0 {fill:black}
   ]]>
  </style>
 </defs>
 <g id="Camada_x0020_1">
  <metadata id="CorelCorpID_0Corel-Layer"/>
  <path class="fil0" d="M4742 -1l-4066 0c-374,0 -677,303 -677,677l0 4744c0,374 303,677 677,677l4744 0c374,0 677,-303 677,-677l0 -4066 -1355 -1355zm-1694 5421c-561,0 -1016,-456 -1016,-1017 0,-560 455,-1016 1016,-1016 561,0 1016,456 1016,1016 0,561 -455,1017 -1016,1017zm1016 -3388l-3388 0 0 -1356 3388 0 0 1356z"/>
 </g>
</svg>
