<?xml version="1.0" encoding="UTF-8"?>
<!DOCTYPE svg PUBLIC "-//W3C//DTD SVG 1.1//EN" "http://www.w3.org/Graphics/SVG/1.1/DTD/svg11.dtd">
<!-- Creator: CorelDRAW X7 -->
<svg xmlns="http://www.w3.org/2000/svg" xml:space="preserve" width="60.96mm" height="60.96mm" version="1.1" style="shape-rendering:geometricPrecision; text-rendering:geometricPrecision; image-rendering:optimizeQuality; fill-rule:evenodd; clip-rule:evenodd"
viewBox="0 0 6096 6096"
 xmlns:xlink="http://www.w3.org/1999/xlink">
 <defs>
  <style type="text/css">
   <![CDATA[
    .fil0 {fill:white}
   ]]>
  </style>
 </defs>
 <g id="Camada_x0020_1">
  <metadata id="CorelCorpID_0Corel-Layer"/>
  <path class="fil0" d="M3875 3051c612,0 1108,-497 1108,-1108 0,-612 -496,-1108 -1108,-1108 -612,0 -1108,496 -1108,1108 0,611 496,1108 1108,1108zm-2493 -554l0 -831 -554 0 0 831 -831 0 0 554 831 0 0 831 554 0 0 -831 831 0 0 -554 -831 0zm2493 1108c-738,0 -2216,370 -2216,1108l0 554 4432 0 0 -554c0,-738 -1478,-1108 -2216,-1108z"/>
 </g>
</svg>
