<?xml version="1.0" encoding="UTF-8"?>
<!DOCTYPE svg PUBLIC "-//W3C//DTD SVG 1.1//EN" "http://www.w3.org/Graphics/SVG/1.1/DTD/svg11.dtd">
<!-- Creator: CorelDRAW X7 -->
<svg xmlns="http://www.w3.org/2000/svg" xml:space="preserve" width="60.96mm" height="60.96mm" version="1.1" style="shape-rendering:geometricPrecision; text-rendering:geometricPrecision; image-rendering:optimizeQuality; fill-rule:evenodd; clip-rule:evenodd"
viewBox="0 0 6096 6096"
 xmlns:xlink="http://www.w3.org/1999/xlink">
 <defs>
  <style type="text/css">
   <![CDATA[
    .fil0 {fill:white}
   ]]>
  </style>
 </defs>
 <g id="Camada_x0020_1">
  <metadata id="CorelCorpID_0Corel-Layer"/>
  <path class="fil0" d="M2852 3350c630,0 1361,87 1798,522 273,272 245,367 56,573 -31,33 -43,47 -73,79 -705,769 -1836,901 -2706,399 -193,-111 -574,-440 -669,-627 -217,-429 956,-946 1594,-946zm-723 -1523c0,-765 963,-1227 1551,-639 840,841 -437,2119 -1277,1279 -130,-131 -274,-396 -274,-640zm-2129 1066c0,1006 256,1684 884,2312 1185,1187 3131,1187 4316,0 1961,-1963 418,-5205 -2006,-5205 -1005,0 -1682,257 -2310,885 -423,424 -884,1179 -884,2008z"/>
 </g>
</svg>
