<?xml version="1.0" encoding="UTF-8"?>
<!DOCTYPE svg PUBLIC "-//W3C//DTD SVG 1.1//EN" "http://www.w3.org/Graphics/SVG/1.1/DTD/svg11.dtd">
<!-- Creator: CorelDRAW 2017 -->
<svg xmlns="http://www.w3.org/2000/svg" xml:space="preserve" width="500px" height="500px" version="1.1" style="shape-rendering:geometricPrecision; text-rendering:geometricPrecision; image-rendering:optimizeQuality; fill-rule:evenodd; clip-rule:evenodd"
viewBox="0 0 500 500"
 xmlns:xlink="http://www.w3.org/1999/xlink">
 <defs>
  <style type="text/css">
   <![CDATA[
    .fil4 {fill:black}
    .fil1 {fill:#005B8A}
    .fil2 {fill:#005B8A}
    .fil3 {fill:#FEFEFE}
    .fil0 {fill:white}
   ]]>
  </style>
 </defs>
 <g id="Camada_x0020_1">
  <metadata id="CorelCorpID_0Corel-Layer"/>
  <rect class="fil0" width="500" height="500"/>
  <g>
   <path class="fil1" d="M360 280l-20 0 0 -20 20 0 0 20zm20 -40l0 40 20 0 0 -20 20 0 0 -20 -40 0zm-180 20l20 0 0 20 -20 0 0 -20 0 0zm80 -60l0 -40 -20 0 0 -40 -20 0 0 60 20 0 0 20 20 0zm-40 60l20 0 0 20 -20 0 0 -20zm-60 -60l20 0 0 -20 20 0 0 -20 -100 0 0 20 20 0 0 20 20 0 0 -20 20 0 0 20zm140 0l20 0 0 -20 20 0 0 -20 -20 0 0 -80 -20 0 0 20 -20 0 0 20 -20 0 0 40 20 0 0 20 20 0 0 20zm80 -160l0 60 60 0 0 -60 -60 0zm-380 80l0 -100 100 0 0 100 -100 0zm120 20l0 -140 -140 0 0 140 140 0zm-100 -100l0 60 60 0 0 -60 -60 0zm140 0l0 20 -20 0 0 20 40 0 0 -20 20 0 0 20 20 0 0 -40 20 0 0 -20 -40 0 0 20 -20 0 0 -40 -20 0 0 20 -20 0 0 20 20 0zm100 -40l0 20 20 0 0 -20 -20 0zm40 0l0 20 20 0 0 -20 -20 0zm0 20l-20 0 0 20 20 0 0 -20zm40 -20l0 140 140 0 0 -140 -140 0zm20 120l0 -100 100 0 0 100 -100 0zm-40 -60l0 -20 -20 0 0 20 20 0zm-20 0l-60 0 0 20 60 0 0 -20zm-60 40l0 -20 -20 0 0 20 20 0zm-40 40l0 -60 -20 0 0 60 20 0zm-40 0l0 -40 -20 0 0 40 20 0zm120 -20l20 0 0 20 -20 0 0 -20zm-240 100l0 -40 20 0 0 20 20 0 0 -40 -100 0 0 20 20 0 0 20 -20 0 0 40 20 0 0 -20 40 0zm-20 40l-40 0 0 80 20 0 0 -60 20 0 0 -20zm20 20l-20 0 0 60 60 0 0 -20 -20 0 0 -60 -20 0 0 20zm40 20l0 20 20 0 0 -20 -20 0zm20 -20l0 20 20 0 0 -20 -20 0zm-20 -40l20 0 0 -20 -20 0 0 20zm20 0l0 20 20 0 0 -20 -20 0zm0 -20l20 0 0 -20 -20 0 0 20zm20 0l0 20 20 0 0 -20 -20 0zm40 40l-40 0 0 20 40 0 0 -20zm-20 40l-20 0 0 20 -20 0 0 20 40 0 0 -40zm20 -20l0 20 20 0 0 -20 -20 0zm100 0l-20 0 0 20 20 0 0 -20zm-20 40l0 -20 -20 0 0 40 40 0 0 20 20 0 0 -20 20 0 0 60 -20 0 0 20 20 0 0 20 60 0 0 20 -60 0 0 20 20 0 0 20 160 0 0 -100 -60 0 0 -20 60 0 0 -20 -40 0 0 -40 -20 0 0 20 -20 0 0 -20 -40 0 0 -40 -20 0 0 40 -40 0 0 -40 -20 0 0 40 -40 0zm80 80l0 -60 60 0 0 60 -60 0zm100 60l20 0 0 -20 20 0 0 40 -40 0 0 -20 -40 0 0 -20 20 0 0 -20 20 0 0 40zm-60 -300l0 40 20 0 0 -40 -20 0zm60 40l-40 0 0 20 40 0 0 -20zm-20 -20l20 0 0 -20 -20 0 0 20zm40 -20l0 60 20 0 0 20 -40 0 0 20 20 0 0 40 20 0 0 20 20 0 0 -40 -20 0 0 -20 20 0 0 -60 -20 0 0 -40 -20 0zm-20 160l0 -60 -20 0 0 60 20 0zm-60 60l0 -20 -20 0 0 20 20 0zm-160 40l-20 0 0 -20 20 0 0 20 20 0 0 -40 40 0 0 -20 -60 0 0 20 -20 0 0 -20 -20 0 0 -20 -20 0 0 40 20 0 0 20 -20 0 0 100 20 0 0 -20 20 0 0 -20 20 0 0 -40zm40 20l0 20 -20 0 0 40 20 0 0 -20 20 0 0 -20 40 0 0 -20 -40 0 0 -20 -40 0 0 20 20 0zm-40 60l0 -20 -20 0 0 20 20 0zm60 -20l0 20 20 0 0 -20 -20 0zm-100 -140l40 0 0 -20 -40 0 0 20zm-40 20l-140 0 0 140 140 0 0 -140zm-120 20l100 0 0 100 -100 0 0 -100zm80 20l-60 0 0 60 60 0 0 -60z"/>
  </g>
  <g>
   <rect class="fil0" x="160" y="200" width="220" height="60.25"/>
   <g id="_2259193692064">
    <path id="PRO_x0020_bg" class="fil2" d="M234.52 223.55c-2.05,1.75 -3.07,4.35 -3.08,7.79 0.07,3.31 1.13,5.87 3.19,7.68 2.12,1.89 5.02,2.8 8.71,2.73 3.64,-0.01 6.47,-0.93 8.5,-2.76 2.03,-1.88 3.07,-4.43 3.12,-7.65 -0.01,-3.39 -1.02,-5.97 -3.04,-7.73 -1.99,-1.76 -4.85,-2.66 -8.58,-2.71 -3.94,-0.02 -6.88,0.87 -8.82,2.65zm-31.86 -2.77l0 8.99 10.47 0c4.3,-0.25 6.54,-1.75 6.73,-4.49 0.1,-2.98 -2.08,-4.48 -6.55,-4.5l-0.18 0 -10.47 0zm-17.9 9.31c4.07,-0.39 6.12,-1.94 6.14,-4.66 -0.06,-2.91 -2.11,-4.46 -6.14,-4.65l-10.95 0 0 9.31 10.95 0zm46.87 -9.08c2.75,-2.41 6.4,-3.64 10.98,-3.7 0.24,-0.01 0.48,-0.01 0.73,0 4.91,0.06 8.72,1.3 11.44,3.73 2.75,2.41 4.13,5.83 4.14,10.25 0,0.02 0,0.03 0,0.05 -0.06,4.32 -1.48,7.71 -4.27,10.18 -2.77,2.5 -6.54,3.78 -11.31,3.85 -4.98,-0.03 -8.85,-1.28 -11.62,-3.77 -2.73,-2.31 -4.16,-5.73 -4.27,-10.26 -0.01,-0.15 -0.01,-0.29 0,-0.43 0.04,-4.25 1.44,-7.55 4.18,-9.9zm30.74 30.1l0 -40 -96.59 0 0 40 96.59 0zm-63.64 -33.9l14.4 0c0.09,0 0.18,0 0.27,0 7.11,0.03 10.58,2.72 10.41,8.07 -0.13,2.8 -1.33,4.86 -3.62,6.17 0.88,0.53 1.57,1.18 2.07,1.95 0.62,0.9 1,2.07 1.14,3.52l0 8.13 -3.95 0 0 -7.57c-0.08,-2.62 -2.19,-3.98 -6.32,-4.08l-10.47 0 0 11.65 -3.93 0 0 -27.84zm-13.97 0c4.42,0.19 7.35,1.38 8.79,3.57 0.84,1.09 1.28,2.64 1.34,4.65 0.04,1.84 -0.48,3.39 -1.57,4.66 -1.88,2.18 -4.92,3.39 -9.11,3.6l-10.4 0 0 11.37 -3.93 0 0 -27.85 14.88 0z"/>
    <path id="PRO" class="fil3" d="M227.45 231.34c0.11,4.53 1.54,7.95 4.27,10.26 2.77,2.49 6.64,3.74 11.62,3.77 4.77,-0.07 8.54,-1.35 11.31,-3.85 2.79,-2.47 4.21,-5.86 4.27,-10.18 0,-4.45 -1.38,-7.88 -4.14,-10.3 -2.72,-2.43 -6.53,-3.67 -11.44,-3.73l-0.73 0c-4.58,0.06 -8.23,1.29 -10.98,3.7 -2.74,2.35 -4.14,5.65 -4.18,9.9l0 0.43zm3.99 0c0.01,-3.44 1.03,-6.04 3.08,-7.79 1.94,-1.78 4.88,-2.67 8.82,-2.65 3.73,0.05 6.59,0.95 8.58,2.71 2.02,1.76 3.03,4.34 3.04,7.73 -0.05,3.22 -1.09,5.77 -3.12,7.65 -2.03,1.83 -4.86,2.75 -8.5,2.76 -3.69,0.07 -6.59,-0.84 -8.71,-2.73 -2.06,-1.81 -3.12,-4.37 -3.19,-7.68zm-47.23 2.35c4.19,-0.21 7.23,-1.42 9.11,-3.6 1.09,-1.27 1.61,-2.82 1.57,-4.66 -0.06,-2.01 -0.5,-3.56 -1.34,-4.65 -1.44,-2.19 -4.37,-3.38 -8.79,-3.57l-14.88 0 0 27.85 3.93 0 0 -11.37 10.4 0zm0.55 -3.6l-10.95 0 0 -9.31 10.95 0c4.03,0.19 6.08,1.74 6.14,4.65 -0.02,2.72 -2.07,4.27 -6.14,4.66zm17.9 -0.32l0 -8.99 10.47 0 0.18 0c4.47,0.02 6.65,1.52 6.55,4.5 -0.19,2.74 -2.43,4.24 -6.73,4.49l-10.47 0zm17.53 1.68c2.29,-1.31 3.49,-3.37 3.62,-6.17 0.17,-5.35 -3.3,-8.04 -10.41,-8.07 -0.09,0 -0.18,0 -0.27,0l-14.4 0 0 27.84 3.93 0 0 -11.65 10.47 0c4.13,0.1 6.24,1.46 6.32,4.08l0 7.57 3.95 0 0 -8.13c-0.14,-1.45 -0.52,-2.62 -1.14,-3.52 -0.5,-0.77 -1.19,-1.42 -2.07,-1.95z"/>
    <path id="PESP_x0020_" class="fil4" d="M266.07 217.21l0 27.84 3.93 0 0 -11.4 10.75 0c3.94,-0.31 6.83,-1.49 8.66,-3.53 1.08,-1.23 1.62,-2.8 1.61,-4.72 -0.04,-5.22 -3.47,-7.95 -10.27,-8.19l-14.68 0zm3.93 12.91l0 -9.37 10.75 0c4.12,0.15 6.22,1.7 6.29,4.65 0.04,2.78 -2.06,4.35 -6.29,4.72l-10.75 0zm24.89 -12.91l0 27.84 23.23 0 0 -3.55 -19.36 0 0 -9.16 16.96 0 0 -3.53 -16.96 0 0 -8.06 19.14 0 0 -3.54 -23.01 0zm38.41 -0.3c-7.91,0 -11.87,2.53 -11.9,7.57 0.05,2.88 1.62,4.97 4.69,6.26 1.93,0.73 4.33,1.35 7.21,1.86 3.71,0.73 5.84,1.21 6.37,1.46 1.97,0.51 2.92,1.63 2.86,3.36 -0.18,2.86 -2.99,4.3 -8.44,4.33 -6.11,0.1 -9.33,-1.76 -9.67,-5.58l0 -2.25 -3.98 0 0 2.2c0.37,6.03 4.92,9.09 13.65,9.19 2.87,0.02 5.36,-0.43 7.47,-1.36 3.27,-1.36 4.9,-3.54 4.89,-6.53 -0.09,-3.6 -2.11,-5.92 -6.06,-6.95 -1.72,-0.58 -4.09,-1.13 -7.09,-1.64 -1.83,-0.29 -3.45,-0.64 -4.87,-1.04 -2.07,-0.61 -3.1,-1.71 -3.08,-3.31 -0.07,-2.64 2.58,-3.98 7.95,-4.02 2.78,0.04 4.8,0.39 6.08,1.03 1.57,0.73 2.45,2.59 2.64,5.56l3.83 0c-0.07,-3.86 -1.45,-6.61 -4.16,-8.25 -2,-1.21 -4.8,-1.84 -8.39,-1.89zm17.69 0.3l0 27.84 3.95 0 0 -11.4 10.96 0c3.84,-0.35 6.64,-1.53 8.4,-3.53 1.06,-1.2 1.61,-2.69 1.63,-4.47l0 -0.25c-0.04,-1.88 -0.48,-3.43 -1.33,-4.65 -1.62,-2.2 -4.52,-3.38 -8.7,-3.54l-14.91 0zm3.95 12.91l0 -9.37 10.96 0c4.01,0.24 6.03,1.79 6.08,4.65 -0.01,2.73 -2.04,4.31 -6.08,4.72l-10.96 0z"/>
   </g>
  </g>
 </g>
</svg>
