<?xml version="1.0" encoding="UTF-8"?>
<!DOCTYPE svg PUBLIC "-//W3C//DTD SVG 1.1//EN" "http://www.w3.org/Graphics/SVG/1.1/DTD/svg11.dtd">
<!-- Creator: CorelDRAW X7 -->
<svg xmlns="http://www.w3.org/2000/svg" xml:space="preserve" width="60.96mm" height="60.96mm" version="1.1" style="shape-rendering:geometricPrecision; text-rendering:geometricPrecision; image-rendering:optimizeQuality; fill-rule:evenodd; clip-rule:evenodd"
viewBox="0 0 6096 6096"
 xmlns:xlink="http://www.w3.org/1999/xlink">
 <defs>
  <style type="text/css">
   <![CDATA[
    .fil0 {fill:white}
   ]]>
  </style>
 </defs>
 <g id="Camada_x0020_1">
  <metadata id="CorelCorpID_0Corel-Layer"/>
  <path class="fil0" d="M4260 1016c0,169 -137,305 -306,305 -169,0 -305,-136 -305,-305 0,-169 136,-306 305,-306 169,0 306,137 306,306zm558 305c34,-95 52,-198 52,-305 0,-506 -410,-916 -916,-916 -506,0 -916,410 -916,916 0,-506 -410,-916 -916,-916 -506,0 -916,410 -916,916 0,107 18,210 52,305l-650 0 -6 0c-337,0 -610,274 -610,611 0,27 2,54 5,81l0 3194c-3,25 -5,51 -5,77 0,337 274,610 610,610l4880 0c337,0 610,-273 610,-610l0 -3325 0 -27c0,-337 -273,-611 -610,-611l-664 0zm-1257 522c119,57 252,89 393,89l1528 0 0 1837 -4880 0 0 -1837 1520 0c141,0 274,-32 394,-89l-894 894 305 306 1111 -1111 1111 1111 306 -306 -894 -894zm-1133 -822c-3,165 -136,298 -301,300l-10 0c-166,-2 -300,-138 -300,-305 0,-169 136,-306 305,-306 167,0 303,134 306,301 0,1 0,3 0,5 0,2 0,3 0,5zm-1826 3653l4880 0 0 610 -4880 0 0 -610z"/>
 </g>
</svg>
