<?xml version="1.0" encoding="UTF-8"?>
<!DOCTYPE svg PUBLIC "-//W3C//DTD SVG 1.1//EN" "http://www.w3.org/Graphics/SVG/1.1/DTD/svg11.dtd">
<!-- Creator: CorelDRAW 2017 -->
<svg xmlns="http://www.w3.org/2000/svg" xml:space="preserve" width="100px" height="100px" version="1.1" style="shape-rendering:geometricPrecision; text-rendering:geometricPrecision; image-rendering:optimizeQuality; fill-rule:evenodd; clip-rule:evenodd"
viewBox="0 0 100 100"
 xmlns:xlink="http://www.w3.org/1999/xlink">
 <defs>
  <style type="text/css">
   <![CDATA[
    .fil3 {fill:#228DCA}
    .fil2 {fill:#2D2A2B}
    .fil4 {fill:#D53338}
    .fil5 {fill:#F8EC23}
    .fil1 {fill:#FFFDFE}
    .fil0 {fill:white}
   ]]>
  </style>
 </defs>
 <g id="Camada_x0020_1">
  <metadata id="CorelCorpID_0Corel-Layer"/>
  <circle class="fil0" cx="49.974" cy="49.974" r="49.875"/>
  <g id="_1757444349952">
   <path class="fil1" d="M31.695 41.459c-0.277,0.011 -0.2,-0.123 -0.215,0.204l0.043 19.984c3.435,0.176 5.27,0.761 8.656,1.417 9.247,1.789 16.18,0.736 25.066,-0.891 0.761,-0.14 1.426,-0.203 2.202,-0.306 0.199,-2.571 0.121,-8.072 0.121,-10.903 0,-2.73 0.048,-8.356 -0.153,-10.829l-2.474 0.036c-0.629,-0.002 -0.081,0.354 -0.303,0.624 -0.059,0.071 -0.374,0.055 -0.474,0.058 -0.35,0.011 -0.996,0.066 -1.312,0.151 -0.957,0.258 -0.638,0.129 -1.748,0.082 0.194,0.36 0.444,0.194 0.511,0.607 -0.348,0.192 -0.559,0.121 -0.985,0.13 0.015,0.495 0.249,0.391 -1.12,0.332 -0.466,-0.02 -1.118,-0.098 -1.562,-0.068 0.042,0.402 0.276,0.912 0.152,1.325 -1.191,0.536 -4.328,-1.961 -5.777,-1.199 -0.178,0.094 -0.413,0.355 -0.475,0.558 1.538,-0.046 4.645,-0.409 4.657,1.42 -0.834,0.162 -1.731,-0.44 -2.602,-0.226 0.071,0.145 0.496,0.313 0.69,0.404 0.687,0.321 1.524,0.72 1.939,1.285 0.412,0.561 -0.213,0.382 1.532,0.638 1.286,0.188 3.582,1.169 4.663,1.732 0.503,0.263 0.833,0.572 1.313,0.851 0.383,0.223 1.129,0.556 1.267,0.849 -0.327,0.286 -0.282,0.15 -0.776,0.188 0.113,0.121 0.268,0.207 0.409,0.319 0.944,0.745 2.019,1.833 1.792,3.222 -0.217,-0.214 -0.426,-0.613 -0.633,-0.835 -0.161,-0.174 -0.606,-0.47 -0.923,-0.563 0.093,0.356 0.364,0.946 0.544,1.217 0.502,0.754 0.734,0.321 0.849,0.899l-0.784 -0.293 0.139 0.744c-1.619,-0.009 -2.296,-1.553 -2.962,-2.643 -0.365,-0.596 -1.065,-0.746 -1.561,-1.203 -1.305,-1.201 -0.464,-1.17 -1.571,-1.186 0.089,0.618 1.2,1.056 1.214,1.797 -0.61,-0.131 -1.843,-1.036 -3.005,-1.259 -0.968,-0.187 -3.001,-0.388 -3.805,0.072 0.182,0.331 0.809,0.587 0.804,0.999 -0.179,0.187 -0.193,0.094 -0.407,0.226 0.115,0.218 0.282,0.216 0.273,0.639 -0.568,0.205 -0.844,0.282 -1.504,0.39 0.004,0.038 0.269,0.706 0.326,0.885 0.759,0.106 1.648,0.135 2.422,0.204 0.786,0.07 1.565,0.148 2.353,0.216 0.773,0.068 1.746,0.039 2.128,0.508 0.349,0.429 0.843,1.062 1.228,1.339 -0.057,0.419 -0.936,1.504 -1.171,1.83 -0.42,0.586 -0.795,1.135 -1.211,1.736l-1.847 2.62c-0.213,0.29 -0.405,0.561 -0.651,0.815 -0.798,0 -1.934,-0.303 -2.698,-0.473 -1.72,-0.381 -3.514,-0.691 -5.25,-1.056 -0.216,-0.045 -0.461,-0.107 -0.667,-0.13 -0.559,-0.062 -0.698,0.765 -1.779,0.547 -0.38,-0.076 -0.785,-0.402 -0.933,-0.678 -0.319,-0.591 -0.08,-0.546 -0.845,-0.718 -1.311,-0.296 -6.965,-1.316 -7.715,-1.718 0.089,-0.167 0.383,-0.456 0.521,-0.579 0.577,-0.519 1.132,-0.919 1.69,-1.488 0.36,-0.366 0.785,-0.649 1.167,-0.997l1.105 -1.014c0.74,-0.704 1.505,-1.347 2.258,-2.025 0.554,-0.497 0.431,-0.717 1.471,-0.462 0.519,0.128 1.236,0.306 1.778,0.344 -0.436,-2.175 -1.259,-1.633 -2.441,-2.166 -0.798,-0.36 -0.573,-0.661 -0.962,-1.341 -0.426,-0.746 -0.826,-0.327 -1.541,-0.714 -0.342,-0.184 -0.319,-0.286 -0.815,-0.318 -1.718,-0.11 -3.758,-0.35 -5.417,0.008 -1.003,0.216 -1.341,0.642 -1.615,0.526 -0.106,-0.418 0.389,-0.76 0.48,-1.228 -0.328,-0.11 -0.902,-0.181 -1.237,-0.068 -0.505,0.171 -0.284,0.523 -0.945,0.475 0.115,-0.558 0.413,-1.19 0.736,-1.419 0.465,-0.33 0.707,-0.01 1.312,-0.759 0.446,-0.554 0.47,-0.548 1.249,-0.825 1.463,-0.522 3.394,-1.21 4.945,-1.269 0.682,-0.026 1.374,0.012 2.058,-0.028 0.65,-0.037 1.28,-0.104 1.925,-0.143 -0.45,-0.553 -2.452,-0.504 -3.306,-0.431 -3.281,0.278 -3.384,0.688 -6.764,-0.248 -0.528,-0.146 -1.004,-0.285 -1.525,-0.422 -0.496,-0.129 -1.022,-0.204 -1.522,-0.331zm35.761 28.707c-2.178,0.663 -6.189,1.234 -8.548,1.508 -9.429,1.099 -13.979,0.889 -23.142,-0.793 -0.735,-0.135 -1.43,-0.239 -2.17,-0.371 -0.688,-0.121 -1.409,-0.309 -2.086,-0.421 -0.079,1.181 0.46,1.619 1.087,2.077 3.975,2.907 12.165,4.863 16.873,4.874 4.419,0.01 11.128,-1.705 14.987,-3.676 1.122,-0.572 3.201,-1.621 2.999,-3.198zm-35.485 -32.316c2.607,-0.09 5.825,0.286 8.162,0.945 2.073,0.584 4.203,0.033 5.958,0.951 0.412,0.215 0.813,0.584 1.445,0.861 0.638,-0.851 0.577,-2.589 3.158,-3.287 0.959,-0.259 4.363,-1.122 5.213,-1.286 2.712,-0.522 7.511,-0.766 10.348,0.078 0.28,0.083 1.053,0.422 1.191,0.432l0.039 -1.811 -36.001 0.007 0.003 3.126 0.484 -0.016zm16.028 12.691c0.35,-0.179 0.761,-0.177 0.679,0.363 -0.186,0.054 -0.295,0.025 -0.449,-0.035 -0.181,-0.072 -0.256,-0.093 -0.23,-0.328zm-0.649 -1.833c0.57,0.054 0.565,0.066 0.622,0.624 -0.496,-0.061 -0.576,-0.123 -0.622,-0.624zm-11.431 -2.613c0.149,-0.937 2.707,-1.377 2.871,-0.516 -0.588,0.17 -0.821,-0.222 -1.349,0.265 -0.224,0.206 -0.416,0.161 -0.737,0.104 -0.41,-0.072 -0.442,0.091 -0.785,0.147zm10.416 -2.599l1 0.065c-0.096,0.565 -0.405,0.489 -0.96,0.488l-0.205 0.489c-0.405,0.012 -0.88,-0.143 -1.08,0.159 -0.127,0.191 -0.036,0.454 -0.824,0.435 -0.377,-0.009 -0.771,-0.116 -1.113,0.022 -0.432,0.173 -0.163,0.417 -0.751,0.546 0.048,-0.549 0.161,-0.559 0.278,-0.981 -0.983,-0.045 -0.544,-0.114 -0.992,-0.16 -0.33,-0.035 -0.805,-0.005 -1.152,-0.004 -0.28,0 -0.897,-0.032 -1.138,0.021 -0.385,0.085 -0.269,0.249 -0.887,0.262 -0.315,0.007 -0.779,0.067 -1.073,0.009 -0.605,-0.119 -1.322,-0.338 -1.995,0.011 -0.215,0.111 -0.499,0.354 -0.564,0.58 0.375,0.671 1.079,0.551 1.491,1.267 0.212,0.37 0.47,0.362 0.977,0.413 1.14,0.113 2.723,0.039 4.016,0.135 1.172,0.086 0.171,0.495 2.22,0.589 0.51,0.758 0.341,1.598 1.663,2.005 1.349,0.416 1.581,0.302 2.045,1.685 0.439,1.307 0.131,1.094 -0.315,2.049 -0.182,0.39 -0.076,0.283 -0.469,0.451 -0.346,0.147 -0.979,0.473 -1.326,0.511 -0.331,0.037 -1.165,0.079 -0.902,0.875 0.297,-0.106 0.145,-0.496 0.627,-0.541 0.118,0.391 0.059,0.601 0.328,0.695 0.104,-0.155 0.151,-0.309 0.221,-0.47 0.06,-0.137 0.124,-0.356 0.239,-0.447 0.341,0.319 0.065,0.867 0.559,1.045 0.1,-1.537 0.095,-1.088 0.955,-1.472 1.609,-0.719 0.286,-2.344 1.067,-2.937 0.139,0.297 -0.039,0.483 -0.043,0.915 -0.003,0.395 0.054,0.732 0.07,1.11 0.032,0.756 -0.51,1.08 -1.158,1.225l0.14 0.504c0.129,-0.138 0.132,-0.222 0.298,-0.357 0.155,0.07 0.331,0.268 0.507,0.391 0.007,-0.01 0.016,-0.038 0.019,-0.031 0.003,0.006 0.015,-0.024 0.018,-0.032 0.047,-0.096 0.01,-0.007 0.045,-0.102 0.07,-0.189 0.08,-0.402 0.194,-0.547 0.322,0.165 0.127,0.339 0.369,0.64 0.204,-0.174 0.065,-0.495 0.259,-0.79 0.086,-0.131 0.518,-0.408 0.62,-0.477 -0.007,-0.356 -0.099,-0.829 -0.148,-1.206 -0.03,-0.222 0.004,-0.373 -0.166,-0.478 -0.227,-0.14 -0.294,-0.022 -0.272,-0.381 0.562,-0.047 1.727,0.734 2.107,0.987 0.337,0.224 0.606,0.439 0.899,0.667 0.166,0.129 0.258,0.25 0.41,0.372 0.123,0.099 0.298,0.226 0.41,0.318 0.044,-0.735 -1.017,-1.498 -1.543,-1.808 -0.445,-0.262 -2.094,-0.876 -2.199,-1.234 0.852,-0.226 1.194,0.769 1.771,0.348 -0.173,-0.331 -0.879,-0.702 -1.422,-0.818 -0.619,-0.132 -0.357,0.081 -0.796,-0.302 -0.164,-0.143 -0.368,-0.218 -0.374,-0.435l0.057 -0.218c0.004,-0.01 0.011,-0.025 0.018,-0.037 0.865,0.231 0.078,0.874 1.719,0.713l-0.984 -1.104c-0.161,-0.182 -0.292,-0.358 -0.446,-0.566 -0.232,-0.313 -0.41,-0.164 -0.367,-0.669 0.797,0.073 0.253,0.877 1.953,0.805 -0.051,-0.251 -0.174,-0.382 -0.259,-0.587 -0.091,-0.22 -0.084,-0.558 -0.188,-0.747 -1.357,-0.053 -3.699,0.4 -3.878,-1.111 0.45,0.054 0.435,0.219 0.7,0.402 0.222,-0.244 0.055,-0.462 0.387,-0.546 0.323,-0.081 0.53,0.025 0.817,0.067 0.343,0.05 0.465,-0.018 0.83,0.087 0.389,0.112 0.482,0.093 0.736,-0.13 -0.036,-0.034 -0.014,-0.023 -0.087,-0.061 -0.102,-0.052 -0.272,-0.084 -0.378,-0.173 -0.18,-0.151 -0.016,-0.629 -1.706,-0.42 -0.6,0.074 -2.045,0.521 -2.519,0.415 0.172,-0.407 1.038,-0.448 1.924,-0.818 0.718,-0.299 1.3,-0.603 1.658,-1.104 0.836,-1.17 1.013,-2.608 1.597,-3.974 0.239,-0.558 0.771,-1.386 1.139,-1.624 1.018,-0.658 5.742,-1.289 6.986,-1.391 3.797,-0.311 6.52,0.047 9.863,1.028 1.479,0.435 2.907,0.829 4.506,1.075 1.275,0.196 3.856,0.341 4.719,-0.44 -1.758,-0.125 -2.725,0.152 -4.856,-0.259 -2.67,-0.516 -5.164,-1.854 -7.976,-2.341 -1.668,-0.289 -3.153,-0.176 -4.833,-0.03 -1.596,0.14 -3.037,0.206 -4.499,0.604 -0.889,0.242 -3.49,0.868 -4.069,1.09 -2.951,1.132 -2.468,3.425 -2.691,3.757 -0.078,0.116 -1.594,0.878 -1.828,2.033zm-10.462 34.325c-0.238,-0.337 -0.916,-0.533 -1.469,-0.481 -3.639,0.652 -11.672,2.893 -13.42,-1.76 -0.305,-0.813 -0.488,-2.104 -0.056,-2.919 0.129,-0.244 0.27,-0.326 0.368,-0.507 0.111,-0.205 0.16,-0.37 0.296,-0.577 0.696,-1.059 1.738,-1.817 3.061,-2.143 1.929,-0.474 4.401,-0.053 6.334,0.246 1.986,0.307 3.926,0.701 5.9,1.06 4.143,0.752 8.197,1.265 12.629,1.265 8.484,0 13.714,-1.404 21.529,-2.823 1.996,-0.362 4.065,-0.688 5.756,0.594 1.42,1.077 2.411,2.895 1.856,4.805 -0.859,2.959 -4.033,3.52 -7.015,3.251 -1.066,-0.096 -2.025,-0.249 -3.039,-0.456 -0.91,-0.185 -2.259,-0.601 -2.748,-0.691 -0.476,-0.051 -0.729,0.187 -0.998,0.351 -0.004,0.105 -0.015,0.073 0.019,0.138l1.365 0.535c1.303,0.456 3.344,0.825 4.739,0.921 2.259,0.157 4.812,0.094 6.447,-1 3.759,-2.515 2.454,-7.791 -1.429,-9.263 -1.971,-0.746 -4.633,-0.103 -6.653,0.27 -7.092,1.31 -12.463,2.648 -20.105,2.531 -4.724,-0.073 -9.15,-0.677 -13.579,-1.513 -3.519,-0.664 -9.889,-2.291 -12.966,-0.337 -3.566,2.263 -4.063,7.433 0.107,9.325 2.779,1.261 8.445,0.345 11.609,-0.422 0.386,-0.094 1.134,-0.254 1.462,-0.4zm7.997 -22.03c-0.079,-0.522 0.037,-0.985 0.321,-1.264 0.389,-0.38 0.749,-0.15 1.249,-0.364 0.864,-0.369 1.368,-0.621 1.629,-1.581 -0.38,-0.175 -2.163,-0.73 -2.595,-0.442l-2.535 2.253c-0.535,0.532 -2.268,1.898 -2.469,2.281 0.769,0.572 4.873,0.905 6.537,1.485 0.28,0.098 0.247,0.063 0.322,0.368 0.127,0.523 0.51,0.936 1.154,0.814 0.445,-0.084 0.54,-0.459 0.774,-0.552 0.114,-0.045 0.907,0.139 1.089,0.172l4.494 0.856c0.684,0.13 1.532,0.34 2.216,0.411 0.332,-0.323 0.792,-0.996 1.1,-1.441 0.378,-0.543 2.997,-4.148 3.039,-4.421 -0.686,-0.336 -2.177,-0.388 -3.075,-0.47l-3.176 -0.2c-0.331,0.043 -0.011,0.273 -0.393,0.75 -0.376,0.469 -0.172,0.217 -0.396,0.614 -0.175,-0.079 -0.296,-0.313 -0.394,-0.479 -0.261,-0.444 -0.631,-1.232 -1.408,-1.082l-0.396 1.021c-0.389,-0.095 -0.252,-0.246 -0.473,-0.507 -0.366,0.295 -0.246,1.355 -0.872,1.361 -0.293,0.002 -0.272,-0.06 -0.527,0.087 -0.141,0.082 -0.221,0.125 -0.399,0.139 -0.447,0.037 -0.584,-0.141 -0.919,-0.18 -0.476,0.354 -0.51,0.464 -0.999,0.116 -0.114,0.441 -0.192,0.763 -0.913,0.424 -0.293,-0.138 -0.363,-0.064 -0.673,-0.029 -0.401,0.045 -0.299,-0.102 -0.609,-0.165 -0.229,-0.046 -0.408,0.114 -0.703,0.025zm-2.286 -14.652c-0.527,0.105 -1.197,-0.309 -1.685,-0.45 -0.471,-0.136 -1.721,-0.147 -1.936,-0.257 0.23,-0.596 1.378,-0.275 1.963,-0.141 0.517,0.119 1.562,0.393 1.658,0.848zm-13.314 -1.131c0.225,-0.725 2.183,-0.465 2.917,-0.369 1.057,0.139 1.738,0.77 2.84,0.632 1.234,-0.154 1.971,-0.144 3.143,0.102 0.643,0.135 2.441,0.386 2.623,0.875 -0.418,0.212 -0.909,-0.015 -1.36,-0.152 -1.631,-0.497 -2.507,-0.815 -4.366,-0.422 -0.746,0.158 -0.811,0.085 -1.364,-0.204 -0.414,-0.215 -0.759,-0.344 -1.274,-0.435 -1.671,-0.295 -2.624,0.068 -3.159,-0.027zm-8.044 0.731c0.576,-0.051 2.377,-0.481 3.483,-0.614 1.281,-0.154 2.582,-0.138 3.876,-0.013 4.026,0.39 7.227,2.073 10.06,2.26 3.09,0.204 3.839,-1.179 7.292,-0.319 0.625,0.156 1.016,0.603 1.538,0.159 0.288,-0.244 0.787,-0.71 0.875,-1.194 -0.126,-0.152 -0.89,-0.675 -1.165,-0.709l0.015 0.454c-0.519,-0.104 -0.948,-0.596 -1.497,-0.717 0.086,0.265 0.148,0.21 0.146,0.556 -0.47,-0.035 -0.849,-0.712 -2.193,-0.905 0.073,0.129 0.397,0.384 0.505,0.493 0.19,0.193 0.305,0.382 0.315,0.734 -0.2,-0.091 -0.291,-0.288 -0.481,-0.431 -0.475,-0.356 -1.441,-0.989 -2.041,-0.762 0.147,0.121 0.689,0.299 1.15,0.641 0.204,0.151 0.208,0.094 0.24,0.382 -0.418,-0.105 -1.032,-0.5 -1.514,-0.672 -0.628,-0.225 -1.216,-0.254 -1.924,-0.186 -1.495,0.142 -2.337,-0.544 -3.759,-0.529 -0.706,0.008 -1.243,0.158 -1.868,0.279 -0.481,0.093 -1.141,-0.295 -1.73,-0.361 -1.001,-0.112 -1.966,-0.241 -2.959,-0.045 -0.385,0.077 -0.563,0.173 -0.963,0.084 0.279,-0.561 2.42,-0.539 3.117,-0.498 1.232,0.072 1.954,0.594 3.183,0.37 2.625,-0.477 2.841,0.494 4.861,0.391 0.6,-0.031 1.04,-0.182 1.572,-0.269 -0.24,-0.27 -1.522,-0.429 -1.804,-0.425l-0.138 0.352c-0.232,0.013 -0.192,-0.033 -0.231,-0.061l-0.623 -0.259c-1.293,-0.495 -1.992,-0.252 -3.165,-0.146 0.107,-0.495 0.197,-0.204 0.285,-0.478 -0.849,-0.293 -3.08,-0.211 -4.048,-0.135 -1.491,0.115 -5.935,0.905 -7.396,1.256 -0.89,0.214 -2.683,0.75 -3.014,1.317zm-2.314 27.18c0.042,-0.045 0.027,-0.02 0.065,-0.091l0.125 -0.341c0.059,-0.156 0.106,-0.278 0.172,-0.426 0.409,-0.924 1.09,-1.86 1.819,-2.463 0.828,-0.683 1.706,-1.157 2.762,-1.522 5.059,-1.746 12.094,-0.141 17.182,0.813 2.953,0.554 5.721,0.853 8.881,0.943 5.904,0.166 12.052,-1.006 17.605,-1.973 2.66,-0.464 6.097,-1.16 8.789,-0.483 1.707,0.428 2.759,1.165 3.97,2.111 0.454,0.354 1.815,1.758 1.93,1.822 0.153,-0.553 0.182,-0.594 -0.147,-0.936l-1.302 -1.183c-0.23,-0.193 -0.417,-0.365 -0.683,-0.562 -3.986,-2.968 -7.692,-2.122 -12.166,-1.386 -5.887,0.967 -11.648,2.089 -17.904,2.06 -6.907,-0.032 -11.028,-1.68 -17.591,-2.386 -4.156,-0.447 -9.033,-0.261 -12.007,2.645 -0.632,0.618 -1.869,1.842 -1.5,3.358zm32.201 -26.949c2.128,-0.214 2.589,-0.309 4.866,0.112 1.424,0.262 3.154,0.782 4.647,0.742 -0.071,-0.107 0.01,-0.029 -0.109,-0.119l-0.416 -0.186c-0.625,-0.242 -1.074,-0.388 -1.688,-0.708 -0.648,-0.337 -1.433,-0.878 -2.272,-0.965 -0.947,-0.098 -2.026,-0.152 -2.985,-0.054 -0.477,0.048 -0.921,0.115 -1.344,0.263 -0.479,0.169 -0.703,0.296 -0.699,0.915zm8.987 26.94c0.021,-0.171 0.062,-0.323 0.097,-0.495 0.037,-0.177 0.045,-0.313 0.13,-0.426 0.111,0.197 0.436,0.598 0.458,0.841l-0.685 0.08zm-2.794 -0.762c0.38,-0.054 1.166,-0.248 1.143,0.254 -0.011,0.247 -0.191,0.286 -0.432,0.317 -0.11,0.014 -0.231,0.027 -0.341,0.039l-0.272 -0.019c-0.007,-0.015 -0.025,-0.008 -0.048,-0.014l-0.05 -0.577zm2.612 -0.747l-0.589 2.442c-0.138,-0.071 -0.319,-0.308 -0.428,-0.429 -0.189,-0.209 -0.227,-0.19 -0.456,-0.366 0.218,-0.196 0.471,-0.168 0.562,-0.533 0.092,-0.372 -0.113,-0.67 -0.315,-0.78 -0.375,-0.202 -1.493,-0.019 -1.99,0.041l0.268 2.508 0.553 -0.038 -0.107 -1.054c0.484,-0.054 0.598,0.074 0.806,0.302 0.159,0.174 0.419,0.427 0.544,0.605 0.324,0.02 0.797,-0.066 1.104,-0.122l0.114 -0.555c0.179,-0.103 0.97,-0.193 1.124,-0.193l0.311 0.511 0.579 -0.078c-0.131,-0.397 -1.309,-1.913 -1.474,-2.333l-0.606 0.072zm15.495 -26.876c-1.854,-0.122 -3.322,-0.328 -5.038,-0.728 -0.83,-0.194 -4.044,-1.205 -4.643,-1.119l2.142 0.949c2.098,0.909 4.962,1.98 7.26,1.085l0.19 -0.099c0.098,-0.078 0.013,0.006 0.089,-0.088zm-8.62 0.317c-0.074,-0.474 -0.794,-0.917 -1.276,-1.117 -1.345,-0.559 -3.521,-0.665 -5.037,-1.041 -0.325,-0.081 -0.626,-0.204 -0.918,-0.285 0.219,0.742 0.74,0.698 1.527,0.885 1.381,0.328 3.838,1.902 5.704,1.558zm-1.593 0.677c-0.491,-1.079 -5.836,-2.39 -7.066,-2.466 0.351,0.592 2.536,1.161 3.371,1.465 1.218,0.444 2.015,1.277 3.695,1.001zm-13.246 4.135c0.406,0.306 0.898,0.559 1.602,0.549 0.133,-0.132 0.235,-0.256 0.305,-0.424 0.429,0.085 0.544,0.51 1.397,0.621 -0.474,-1.048 -1.884,-1.057 -2.238,-1.435 0.3,-0.389 1.38,-0.312 1.963,-0.362 0.912,-0.078 1.255,0.117 2.083,0.217 -0.307,-0.626 -2.78,-1.421 -4.203,-0.18 -0.372,0.325 -0.834,0.607 -0.909,1.014zm-0.387 -4.96c0.487,-0.015 1.032,-0.13 1.546,-0.176 0.548,-0.049 1.071,-0.067 1.624,-0.094 1.067,-0.05 2.339,0.058 3.363,-0.036 -0.874,-0.71 -2.232,-0.75 -3.393,-0.733 -0.653,0.009 -1.282,0.084 -1.912,0.174 -0.76,0.11 -1.084,0.109 -1.228,0.865zm9.196 -2.38c0.175,0.253 0.724,0.303 1.033,0.341 0.394,0.048 0.826,0.072 1.231,0.116 1.066,0.115 2.194,0.361 3.039,0.96 0.823,0.584 0.908,1.273 2.989,1.02 -0.143,-0.513 -2.859,-1.521 -3.63,-1.761 -1.371,-0.426 -3.089,-0.952 -4.662,-0.676zm-29.392 27.976c0.179,-0.007 0.64,0.047 0.805,0.097 0.303,0.091 0.276,0.309 0.164,0.552 -0.263,0.086 -0.775,0.071 -1.053,-0.057l0.084 -0.592zm-0.823 2l0.513 0.06 0.148 -0.987c0.286,-0.163 0.533,0.136 0.669,0.383 0.145,0.263 0.26,0.526 0.414,0.779l0.605 0.077c-0.105,-0.514 -0.512,-0.97 -0.673,-1.221 0.348,-0.044 0.58,-0.132 0.704,-0.4 0.167,-0.361 0.019,-0.688 -0.18,-0.842 -0.275,-0.213 -1.418,-0.321 -1.854,-0.362 -0.067,0.384 -0.384,2.262 -0.346,2.513zm46.612 -1.49c0.031,-0.184 0.158,-0.454 0.251,-0.59 0.263,0.05 0.684,0.265 0.867,0.437 0.019,0.239 -0.028,0.285 -0.133,0.412 -0.387,0.081 -0.671,-0.17 -0.985,-0.259zm-1.119 1.086c0.13,0.077 0.322,0.182 0.494,0.191l0.42 -0.909c0.476,0.065 0.478,0.401 0.566,0.844 0.119,0.601 0.078,0.658 0.68,0.814 -0.034,-0.52 -0.128,-0.929 -0.314,-1.336 0.454,0.004 0.659,-0.016 0.841,-0.302 0.181,-0.286 0.158,-0.644 -0.072,-0.859 -0.163,-0.152 -1.27,-0.661 -1.573,-0.736l-1.042 2.293zm-38.88 -0.687c0.766,-0.004 1.118,0.242 0.968,1.019 -0.16,0.825 -0.5,0.782 -1.294,0.609l0.326 -1.628zm-0.941 1.939c0.265,0.118 1.292,0.269 1.61,0.205 0.474,-0.096 0.743,-0.489 0.85,-0.983 0.31,-1.431 -0.798,-1.59 -2.007,-1.685l-0.453 2.463zm16.185 -0.642c0.235,-0.075 0.733,-0.056 0.915,0.052 0.209,0.124 0.276,0.398 0.293,0.728 0.017,0.351 -0.02,0.645 -0.256,0.772 -0.2,0.107 -0.641,0.133 -0.88,0.083 -0.036,-0.35 -0.118,-1.332 -0.072,-1.635zm-0.601 -0.412l0.139 2.522c1.215,0.029 2.324,0.01 2.248,-1.371 -0.076,-1.392 -1.122,-1.249 -2.387,-1.151zm13.559 -1.359c0.805,-0.099 1.12,-0.106 1.236,0.692 0.125,0.865 -0.245,0.94 -1.038,0.964 -0.041,-0.306 -0.241,-1.423 -0.198,-1.656zm-0.591 -0.362c-0.071,0.201 0.24,2.325 0.343,2.511 1.046,-0.01 2.25,-0.166 2.05,-1.515 -0.078,-0.526 -0.319,-0.915 -0.717,-1.073 -0.383,-0.152 -1.236,0.023 -1.676,0.077zm-22.784 3.236l0.192 -1.657c0.756,-0.003 1.155,0.136 1.047,0.943 -0.12,0.897 -0.436,0.782 -1.239,0.714zm-0.596 0.362c1.201,0.119 2.211,0.389 2.395,-0.964 0.088,-0.642 -0.108,-1.095 -0.525,-1.304 -0.239,-0.12 -1.262,-0.253 -1.565,-0.241 -0.076,0.472 -0.342,2.134 -0.305,2.509zm27.047 -3.595c1.067,-0.273 1.337,1.449 0.466,1.685 -1.044,0.282 -1.429,-1.438 -0.466,-1.685zm-0.213 -0.402c-0.712,0.203 -1.072,0.812 -0.821,1.668 0.197,0.67 0.827,1.059 1.684,0.833 1.548,-0.409 1.012,-3.036 -0.863,-2.501zm-45.012 0.512l0.725 1.46c-0.293,-0.089 -0.811,-0.435 -1.09,-0.602 -0.427,-0.255 -0.607,-0.515 -1.066,-0.128l1.135 2.231 0.44 -0.185c-0.13,-0.458 -0.584,-1.005 -0.7,-1.44 0.291,0.115 0.763,0.425 1.054,0.593 0.519,0.3 0.54,0.483 1.087,0.121l-1.157 -2.246 -0.428 0.196zm26.324 4.134l2.113 0.018 -0.001 -0.408 -1.531 -0.032 -0.011 -0.673 1.401 -0.009 0.004 -0.396 -1.378 -0.044 -0.009 -0.54 1.499 -0.007 -0.002 -0.424c-0.374,-0.014 -1.784,-0.064 -2.051,0.003l-0.034 2.512zm4.799 -2.615l0.227 2.524 2.097 -0.169 -0.031 -0.412 -1.537 0.113 -0.076 -0.681c0.313,-0.033 0.599,-0.055 0.907,-0.081 0.108,-0.009 0.362,0.008 0.437,-0.064 0.045,-0.043 0.05,-0.011 0.036,-0.159l-0.078 -0.226c-0.418,-0.005 -0.953,0.129 -1.335,0.069l-0.055 -0.531 1.466 -0.125 -0.018 -0.4c-0.361,-0.054 -1.602,0.105 -2.04,0.142zm-10.4 2.236l2.023 0.167 0.037 -0.419 -1.483 -0.132 0.04 -0.67 1.365 0.088 0.017 -0.401 -1.335 -0.134 0.041 -0.54 1.452 0.097 0.045 -0.419c-0.363,-0.047 -1.734,-0.189 -2.005,-0.144 -0.043,0.424 -0.255,2.22 -0.197,2.507zm-10.347 -2.399l-0.499 -0.051c-0.163,1.083 1.485,1.374 1.969,0.824 0.362,-0.412 0.178,-0.892 -0.195,-1.128 -0.305,-0.193 -1.048,-0.366 -0.932,-0.678 0.061,-0.104 0.048,-0.126 0.239,-0.146 0.113,-0.013 0.236,0.007 0.331,0.034 0.102,0.029 0.188,0.072 0.236,0.133 0.053,0.067 0.029,0.054 0.061,0.123 0.093,0.202 -0.05,0.132 0.556,0.25 0.257,-1.372 -2.63,-1.176 -1.894,0.028 0.26,0.426 1.134,0.555 1.211,0.828 0.095,0.337 -0.327,0.427 -0.636,0.353 -0.322,-0.077 -0.357,-0.241 -0.447,-0.57zm-5.371 0.227c0.26,0.046 1.827,0.196 2.001,0.131l0.03 -0.381 -1.483 -0.128c-0.033,-0.187 -0.008,-0.499 0.059,-0.668 0.415,-0.032 0.976,0.124 1.336,0.056l0.034 -0.386 -1.344 -0.118 0.044 -0.531c0.273,-0.057 1.113,0.077 1.467,0.085l0.031 -0.423c-0.377,-0.03 -1.757,-0.193 -2.004,-0.13l-0.187 2.454c0.003,0.01 0.009,0.027 0.016,0.039zm11.88 -0.196c0.147,0.183 0.196,0.662 0.222,0.925l-0.684 -0.091 0.462 -0.834zm-1.598 1.641c0.124,0.082 0.374,0.105 0.549,0.097l0.317 -0.5c1.514,0.077 0.961,0.28 1.245,0.74l0.544 0.098 -0.636 -2.669 -0.592 -0.075 -1.427 2.309zm35.714 -2.57c0.063,-0.275 0.206,-0.686 0.361,-0.886l0.346 0.885 -0.707 0.001zm-0.973 1.004l0.585 0.006c0.186,-0.635 0.135,-0.654 1.281,-0.578l0.265 0.563 0.559 0c-0.013,-0.123 -1.003,-2.489 -1.147,-2.529l-0.506 0.008 -1.037 2.53zm-18.8 -20.609c0.081,0.875 1.793,0.687 2.66,0.714 1.087,0.033 2.305,0.093 3.377,0.06l-0.27 -0.167c-0.867,-0.393 -1.676,-0.381 -2.647,-0.389 -0.862,-0.007 -2.392,-0.437 -3.12,-0.218zm1.578 1.066c0.625,0.341 5.778,1.523 6.642,1.493 -0.317,-0.276 -2.38,-0.942 -2.936,-1.147 -0.822,-0.303 -2.729,-0.52 -3.706,-0.346zm24.727 20.305l-0.427 0.819c-0.192,-0.081 -0.414,-0.34 -0.475,-0.518l0.902 -0.301zm-2.304 0.302l0.306 0.365 0.642 -0.189c0.186,0.284 0.489,0.476 0.655,0.791l-0.266 0.545 0.372 0.411 1.03 -1.974c0.167,-0.313 0.304,-0.394 0.095,-0.636 -0.31,-0.361 -0.334,-0.193 -1.368,0.146 -0.278,0.091 -1.351,0.417 -1.466,0.541zm-57.992 -0.599c0.687,0.712 1.888,1.114 1.354,1.728 -0.406,0.468 -0.781,0.041 -1.096,-0.196 -0.218,-0.164 -0.769,-0.654 -0.955,-0.728 -0.122,0.125 -0.239,0.223 -0.292,0.393l1.235 0.992c0.597,0.44 1.056,0.339 1.448,-0.167 0.713,-0.92 0.152,-1.222 -0.739,-1.924 -0.181,-0.142 -0.432,-0.374 -0.638,-0.483 -0.127,0.085 -0.252,0.226 -0.317,0.385zm51.394 -2.379c0.159,-0.058 0.648,-0.051 0.768,0.039 0.378,0.287 -0.053,0.78 -0.798,0.663 -0.018,-0.138 -0.038,-0.281 -0.057,-0.417 -0.031,-0.237 -0.066,-0.229 0.087,-0.285zm-0.405 2.142l0.542 -0.026 -0.099 -0.956c0.617,-0.075 1.269,-0.076 1.401,-0.642 0.163,-0.694 -0.325,-1.039 -0.986,-0.995 -1.453,0.098 -1.181,0.012 -1.08,0.817 0.074,0.595 0.151,1.191 0.222,1.802zm-9.736 -25.69c-0.187,-0.437 -1.169,-0.962 -1.709,-1.233 -0.724,-0.363 -1.626,-0.468 -2.543,-0.487 0.114,0.241 0.631,0.538 0.847,0.663 0.305,0.176 0.622,0.347 0.982,0.493 0.696,0.283 1.553,0.593 2.423,0.564zm-34.94 24.901c-0.297,-0.478 -0.489,-1.331 -0.793,-1.782l-0.556 0.009c0.046,0.327 0.885,1.923 1.059,2.482l0.596 -0.015 0.83 -2.572 -0.548 0.01c-0.242,0.487 -0.34,1.35 -0.588,1.868zm36.485 -25.482c-0.367,-0.689 -3.364,-1.865 -4.512,-1.784 0.862,0.779 2.89,1.803 4.512,1.784zm-7.76 6.847c-0.386,-0.294 -1.899,-1.227 -2.543,-0.83l0.539 0.347c0.207,0.103 0.381,0.17 0.588,0.287 0.518,0.293 1.788,1.735 3.258,1.93 -0.103,-0.174 -0.716,-0.661 -0.919,-0.861 -0.164,-0.162 -0.304,-0.291 -0.477,-0.445 -0.142,-0.127 -0.299,-0.316 -0.446,-0.428zm-8.14 21.764c0.19,0.027 0.395,0.052 0.564,-0.002l0.05 -1.012 1.161 0.019 0.019 -0.415 -1.141 -0.061 0.015 -0.575 1.339 0.033 0.011 -0.429 -1.885 -0.079 -0.133 2.521zm31.239 1.59c-0.287,-0.224 -0.488,-0.008 -0.753,0.14 -1.326,0.739 -2.7,1.07 -4.225,1.263 -0.332,0.042 -0.65,0.076 -0.984,0.118 -0.265,0.034 -0.814,0.056 -0.778,0.245 0.026,0.138 -0.008,0.113 0.45,0.115 1.086,0.007 2.27,-0.244 3.301,-0.528 0.93,-0.257 2.548,-0.739 2.989,-1.353zm-26.63 -23.954c0.171,0.104 0.361,0.164 0.54,0.275 1.251,0.773 2.594,2.328 3.801,2.139 -0.047,-0.156 -0.324,-0.259 -0.477,-0.351 -0.203,-0.124 -0.374,-0.218 -0.539,-0.336 -0.54,-0.389 -0.93,-1.034 -1.992,-1.507 -0.207,-0.092 -1.154,-0.467 -1.333,-0.22zm-33.234 -5.369c0.96,0.008 2.484,-0.278 3.383,-0.473 1.047,-0.227 1.956,-0.413 2.87,-0.904 -0.584,-0.104 -5.86,1.008 -6.253,1.377zm41.48 5.76c0.297,0.147 0.804,0.295 1.141,0.431 0.934,0.379 2.604,1.196 3.486,1.289 -0.281,-0.831 -3.28,-1.899 -4.627,-1.72zm-9.26 1.439l-0.413 -0.008c0.137,0.549 0.55,0.749 0.861,1.033 0.878,0.802 2.553,1.675 3.852,1.727 -0.289,-0.743 -1.078,-0.596 -2.412,-1.141 -0.557,-0.227 -0.736,-0.349 -1.068,-0.682 -0.312,-0.313 -0.58,-0.514 -0.82,-0.929zm10.744 17.234l0.495 2.423c0.365,0.013 1.462,-0.244 1.9,-0.328l-0.057 -0.396 -1.374 0.222 -0.434 -2.028c-0.182,0.012 -0.391,0.035 -0.53,0.107zm-7.874 -16.652c0.147,0.061 1.023,0.273 0.937,0.024 -0.049,-0.14 -0.535,-0.449 -0.711,-0.572 -1.112,-0.776 -1.458,-1.664 -2.217,-1.208 0.334,0.568 1.318,1.474 1.991,1.756zm-29.906 21.938c-0.208,-0.149 -0.329,-0.254 -0.647,-0.219 0.068,0.666 1.715,1.197 2.506,1.394 0.9,0.224 1.708,0.339 2.645,0.314 0.407,-0.01 0.706,0.008 0.682,-0.29 -0.204,-0.126 -1.413,-0.026 -1.789,-0.049 -1.277,-0.077 -2.386,-0.428 -3.397,-1.15zm39.57 -21.521c0.193,0.723 0.616,1.299 1.011,1.757 0.238,0.275 1.145,1.038 1.638,1.18 -0.205,-0.764 -0.757,-1.255 -1.172,-1.646 -0.352,-0.331 -0.934,-1.134 -1.477,-1.291zm-13.14 -6.939c0.771,0.105 1.238,0.054 1.807,-0.293 0.353,-0.216 1.038,-0.735 1.189,-1.028 -0.511,0.046 -1.099,0.391 -1.667,0.497 -0.747,0.139 -1.208,0.036 -1.329,0.824zm8.303 5.463c0.707,0.483 1.633,0.678 2.514,0.858 0.495,0.101 0.981,0.169 1.52,0.199 0.278,0.015 0.532,0.026 0.804,0.055 0.238,0.025 0.569,0.083 0.666,-0.135l-5.504 -0.977zm-4.368 -6.882c0.121,0.257 0.584,0.206 1.133,0.362 0.381,0.108 0.743,0.257 1.062,0.412 0.639,0.31 1.375,0.788 2.227,0.724 -0.002,-0.367 -1.664,-0.936 -1.913,-1.036 -0.384,-0.153 -2.094,-0.724 -2.509,-0.462zm12.833 10.526c-0.212,-0.765 -1.702,-2.215 -2.799,-2.164 0.038,0.405 0.893,0.926 1.252,1.189 0.284,0.21 1.177,0.886 1.547,0.975zm-16.744 -6.701c0.499,0.445 0.352,-0.473 1.713,0.238 0.525,0.274 1.158,0.563 1.877,0.304 -0.222,-0.193 -0.6,-0.273 -0.931,-0.375 -0.714,-0.221 -0.783,-0.316 -1.354,-0.627 -0.495,-0.269 -0.305,-0.042 -0.859,0.199 -0.201,0.087 -0.322,0.067 -0.446,0.261zm0.368 -3.36c0.745,-0.016 0.917,-0.134 1.484,-0.376 0.532,-0.228 0.807,-0.218 1.233,-0.572 -1.087,-0.183 -2.543,-0.054 -2.717,0.948zm-15.372 25.957l0.513 0.094c0.083,-0.136 0.511,-2.261 0.507,-2.475l-0.507 -0.107 -0.513 2.488zm-11.021 -2.988c0.037,0.302 0.272,0.902 0.379,1.223 0.098,0.295 0.251,0.972 0.426,1.185l0.462 -0.129 -0.769 -2.402 -0.498 0.123zm29.313 -14.922c-0.956,-0.126 -1.195,-0.528 -1.682,-0.709 0.185,0.803 2.214,1.406 3.277,1.482 -0.197,-0.667 -1.137,-0.712 -1.595,-0.773zm-6.05 9.649c-0.286,-0.092 -0.539,-0.298 -0.798,-0.329 0.015,0.212 0.081,0.21 0.262,0.313 0.709,0.401 0.933,0.153 1.497,0.304 0.309,0.083 0.479,0.234 0.872,0.321 0.325,0.072 0.655,0.144 0.981,0.211 0.677,0.139 1.312,0.287 1.981,0.425 0.582,0.12 1.316,0.437 1.846,0.476 -0.131,-0.256 -0.522,-0.282 -0.828,-0.352 -0.32,-0.073 -0.637,-0.156 -0.962,-0.232 -0.315,-0.074 -3.125,-0.718 -3.361,-0.83 -0.152,-0.071 -0.262,-0.154 -0.397,-0.197 -0.371,-0.116 -0.712,0.012 -1.093,-0.11zm4.957 -21.269c0.596,-0.013 1.202,-0.075 1.828,-0.076 0.558,0 1.302,0.08 1.818,0.034 -0.843,-0.757 -1.238,-0.604 -2.71,-0.273 -0.178,0.04 -0.309,0.07 -0.483,0.117 -0.073,0.02 -0.145,0.035 -0.216,0.059 -0.008,0.003 -0.092,0.033 -0.104,0.039 -0.137,0.074 -0.055,0.018 -0.133,0.1zm-18.304 8.087c0.493,-0.096 0.792,-0.262 1.334,-0.082 0.435,0.145 0.656,0.375 1.201,0.169 -0.367,-0.871 -2.228,-1.135 -2.535,-0.087zm24.219 2.341c0.285,0.57 1.821,1.397 2.373,1.541 -0.2,-0.956 -1.645,-1.475 -2.373,-1.541zm-2.026 -0.859c0.738,0.849 1.135,1.319 2.155,1.622 -0.037,-0.147 -0.701,-0.817 -0.856,-1.033 -0.42,-0.581 -0.411,-0.619 -1.299,-0.589zm-15.528 9.229c0.081,0.081 0.027,0.126 0.234,0.219 0.222,0.1 0.767,0.144 1.017,0.172 0.845,0.096 1.718,0.298 2.413,0.771 0.159,0.108 0.299,0.197 0.518,0.266 0.145,0.045 0.362,0.083 0.51,0.038 0.162,-0.05 0.078,-0.033 0.119,-0.069 -0.188,-0.131 -0.362,-0.14 -0.57,-0.212 -0.213,-0.074 -0.347,-0.138 -0.551,-0.234 -0.34,-0.16 -0.686,-0.353 -1.033,-0.486 -0.481,-0.184 -2.087,-0.447 -2.657,-0.465zm16.383 -11.309c-0.21,-0.722 -1.819,-1.406 -2.407,-1.486 0.088,0.198 0.842,0.705 1.063,0.879 0.386,0.303 0.648,0.566 1.344,0.607zm7.324 6.413c0.189,0.756 1.307,1.708 1.845,1.84 -0.101,-0.339 -0.202,-0.36 -0.361,-0.594 -0.123,-0.181 -0.186,-0.419 -0.336,-0.584 -0.193,-0.213 -0.784,-0.561 -1.148,-0.662zm-8.558 -14.677c0.041,0.17 0.609,0.465 0.796,0.58 0.368,0.227 0.681,0.306 1.196,0.261 -0.092,-0.128 -0.584,-0.605 -0.752,-0.75 -0.375,-0.325 -0.712,-0.165 -1.24,-0.091zm-0.029 3.702c0.073,0.14 0.303,0.162 0.597,0.285 0.501,0.21 1.534,0.702 1.97,0.758 -0.288,-0.801 -2.438,-1.356 -2.567,-1.043zm7.052 8.47l-1.011 -0.031c0.086,0.46 0.948,1.1 1.447,1.277l-0.436 -1.246zm-5.15 11.036c0.478,-0.156 2.48,-2.933 2.617,-3.352 -0.372,0.145 -0.501,0.496 -0.718,0.812 -0.328,0.479 -0.845,0.993 -1.316,1.678 -0.227,0.331 -0.54,0.562 -0.583,0.862zm-30.348 -19.869c0.224,0.425 0.886,0.178 1.259,0.064 0.251,-0.076 1.066,-0.267 1.154,-0.458 -0.68,-0.052 -1.787,0.233 -2.413,0.394zm32.175 16.589c0.338,-0.176 0.724,-0.875 0.955,-1.278 0.248,-0.433 0.637,-0.894 0.751,-1.413 -0.294,0.154 -1.595,2.21 -1.706,2.691zm-33.959 -16.444c0.534,-0.048 2.148,-0.465 2.351,-0.811 -0.664,-0.003 -2.078,0.38 -2.351,0.811zm-1.523 0.006c1.015,0.028 1.578,-0.329 2.285,-0.709 -0.308,-0.13 -0.928,0.093 -1.238,0.191l-0.907 0.38c-0.012,0.009 -0.047,0.036 -0.058,0.046 -0.093,0.082 0.001,-0.04 -0.082,0.092zm5.177 0.068c0.548,0.055 1.512,-0.014 2.02,-0.145 -0.259,-0.264 -0.503,-0.366 -0.976,-0.241 -0.283,0.075 -0.847,0.247 -1.044,0.386zm22.23 18.537c-0.307,-0.092 -1.042,-0.307 -1.36,-0.231 0.014,0.024 -0.026,0.059 0.048,0.114 0.084,0.063 0.38,0.101 0.491,0.124 0.517,0.105 1.741,0.502 1.927,0.505 -0.154,-0.236 -0.146,-0.219 -0.47,-0.319 -0.227,-0.07 -0.405,-0.124 -0.636,-0.193zm3.218 1.375c0.237,0.191 1.673,0.292 2.06,0.263 -0.229,-0.294 -1.583,-0.453 -2.06,-0.263zm-1.964 -9.235c0.071,0.141 0.056,0.105 0.183,0.21 0.539,0.448 0.875,1.106 1.152,1.174 -0.087,-0.699 -0.837,-1.225 -1.335,-1.384zm-2.148 2.173c-0.507,0.06 -0.607,0.132 -0.611,0.661l0.626 -0.016 -0.015 -0.645zm7.224 -16.714l1.224 0.501 -0.159 -0.593 -1.065 0.092zm-22.102 9.994c0.067,0.048 -0.103,0.027 0.129,0.042 0.167,0.011 1.087,-0.118 1.282,-0.318 -0.259,-0.228 -0.391,-0.125 -0.705,-0.029 -0.305,0.095 -0.48,0.105 -0.706,0.305zm17.975 12.725c-0.007,-0.012 -0.025,0.009 -0.037,0.016 0.032,0.064 -0.061,0.093 0.246,0.159 0.482,0.104 0.886,0.233 1.307,0.218 -0.081,-0.096 -0.025,-0.051 -0.156,-0.127 -0.23,-0.133 -0.69,-0.246 -0.963,-0.278 -0.047,-0.005 -0.189,-0.02 -0.231,-0.019l-0.166 0.031zm-0.401 -8.459c0.146,0.176 0.2,0.529 0.984,0.484l0.314 -0.066c0.009,-0.003 0.028,-0.004 0.034,-0.02 0.006,-0.016 0.023,-0.014 0.035,-0.024l-1.367 -0.374zm3.861 9.232c0.316,-0.105 0.865,-0.988 0.962,-1.268 -0.317,0.085 -0.408,0.345 -0.571,0.572 -0.142,0.195 -0.322,0.412 -0.391,0.696zm23.805 6.036c0.095,0.119 0.119,0.227 0.306,0.249 0.137,0.016 0.438,0.013 0.582,0.007l-0.323 -0.386 -0.565 0.13zm-19.893 -9.857c0.25,-0.054 0.211,-0.112 0.476,-0.478 0.126,-0.174 0.264,-0.365 0.363,-0.539 -0.347,0.087 -0.747,0.684 -0.839,1.017zm-5.804 3.431c0.076,0.071 0.018,0.154 0.416,0.271 0.178,0.052 0.327,0.091 0.499,0.111 -0.083,-0.202 -0.128,-0.241 -0.342,-0.316 -0.182,-0.063 -0.368,-0.075 -0.573,-0.066zm-5.322 -16.883c0.263,-0.002 0.762,-0.062 0.872,-0.254 -0.39,-0.028 -0.73,-0.101 -0.872,0.254zm-9.362 14.628c0.072,0.068 0.009,0.086 0.183,0.18l0.613 0.198c-0.027,-0.227 -0.061,-0.235 -0.288,-0.294 -0.169,-0.045 -0.338,-0.07 -0.508,-0.084zm5.729 -14.813c0.068,0.175 0.061,0.087 0.186,0.226 0.148,-0.002 0.262,-0.02 0.35,-0.087 -0.116,-0.144 -0.358,-0.227 -0.536,-0.139z"/>
   <path class="fil2" d="M53.91 61.2c0.477,-0.19 1.831,-0.031 2.06,0.263 -0.387,0.029 -1.823,-0.072 -2.06,-0.263zm0.553 -0.674c0.205,-0.009 0.391,0.003 0.573,0.066 0.214,0.075 0.259,0.114 0.342,0.316 -0.172,-0.02 -0.321,-0.059 -0.499,-0.111 -0.398,-0.117 -0.34,-0.2 -0.416,-0.271zm-1.605 -0.367c0.012,-0.007 0.03,-0.028 0.037,-0.016l0.166 -0.031c0.042,-0.001 0.184,0.014 0.231,0.019 0.273,0.032 0.733,0.145 0.963,0.278 0.131,0.076 0.075,0.031 0.156,0.127 -0.421,0.015 -0.825,-0.114 -1.307,-0.218 -0.307,-0.066 -0.214,-0.095 -0.246,-0.159zm3.497 0.757c0.069,-0.284 0.249,-0.501 0.391,-0.696 0.163,-0.227 0.254,-0.487 0.571,-0.572 -0.097,0.28 -0.646,1.163 -0.962,1.268zm-7.023 -1.322c0.318,-0.076 1.053,0.139 1.36,0.231 0.231,0.069 0.409,0.123 0.636,0.193 0.324,0.1 0.316,0.083 0.47,0.319 -0.186,-0.003 -1.41,-0.4 -1.927,-0.505 -0.111,-0.023 -0.407,-0.061 -0.491,-0.124 -0.074,-0.055 -0.034,-0.09 -0.048,-0.114zm-3.53 -0.149c0.259,0.031 0.512,0.237 0.798,0.329 0.381,0.122 0.722,-0.006 1.093,0.11 0.135,0.043 0.245,0.126 0.397,0.197 0.236,0.112 3.046,0.756 3.361,0.83 0.325,0.076 0.642,0.159 0.962,0.232 0.306,0.07 0.697,0.096 0.828,0.352 -0.53,-0.039 -1.264,-0.356 -1.846,-0.476 -0.669,-0.138 -1.304,-0.286 -1.981,-0.425 -0.326,-0.067 -0.656,-0.139 -0.981,-0.211 -0.393,-0.087 -0.563,-0.238 -0.872,-0.321 -0.564,-0.151 -0.788,0.097 -1.497,-0.304 -0.181,-0.103 -0.247,-0.101 -0.262,-0.313zm-6.023 -1.174c0.17,0.014 0.339,0.039 0.508,0.084 0.227,0.059 0.261,0.067 0.288,0.294l-0.613 -0.198c-0.174,-0.094 -0.111,-0.112 -0.183,-0.18zm17.161 2.667c0.043,-0.3 0.356,-0.531 0.583,-0.862 0.471,-0.685 0.988,-1.199 1.316,-1.678 0.217,-0.316 0.346,-0.667 0.718,-0.812 -0.137,0.419 -2.139,3.196 -2.617,3.352zm-17.022 -3.635c0.57,0.018 2.176,0.281 2.657,0.465 0.347,0.133 0.693,0.326 1.033,0.486 0.204,0.096 0.338,0.16 0.551,0.234 0.208,0.072 0.382,0.081 0.57,0.212 -0.041,0.036 0.043,0.019 -0.119,0.069 -0.148,0.045 -0.365,0.007 -0.51,-0.038 -0.219,-0.069 -0.359,-0.158 -0.518,-0.266 -0.695,-0.473 -1.568,-0.675 -2.413,-0.771 -0.25,-0.028 -0.795,-0.072 -1.017,-0.172 -0.207,-0.093 -0.153,-0.138 -0.234,-0.219zm20.349 -0.208c0.092,-0.333 0.492,-0.93 0.839,-1.017 -0.099,0.174 -0.237,0.365 -0.363,0.539 -0.265,0.366 -0.226,0.424 -0.476,0.478zm-1.5 0.563c0.111,-0.481 1.412,-2.537 1.706,-2.691 -0.114,0.519 -0.503,0.98 -0.751,1.413 -0.231,0.403 -0.617,1.102 -0.955,1.278zm-8.969 -3.52l0.015 0.645 -0.626 0.016c0.004,-0.529 0.104,-0.601 0.611,-0.661zm-5.928 1.653c0.295,0.089 0.474,-0.071 0.703,-0.025 0.31,0.063 0.208,0.21 0.609,0.165 0.31,-0.035 0.38,-0.109 0.673,0.029 0.721,0.339 0.799,0.017 0.913,-0.424 0.489,0.348 0.523,0.238 0.999,-0.116 0.335,0.039 0.472,0.217 0.919,0.18 0.178,-0.014 0.258,-0.057 0.399,-0.139 0.255,-0.147 0.234,-0.085 0.527,-0.087 0.626,-0.006 0.506,-1.066 0.872,-1.361 0.221,0.261 0.084,0.412 0.473,0.507l0.396 -1.021c0.777,-0.15 1.147,0.638 1.408,1.082 0.098,0.166 0.219,0.4 0.394,0.479 0.224,-0.397 0.02,-0.145 0.396,-0.614 0.382,-0.477 0.062,-0.707 0.393,-0.75l3.176 0.2c0.898,0.082 2.389,0.134 3.075,0.47 -0.042,0.273 -2.661,3.878 -3.039,4.421 -0.308,0.445 -0.768,1.118 -1.1,1.441 -0.684,-0.071 -1.532,-0.281 -2.216,-0.411l-4.494 -0.856c-0.182,-0.033 -0.975,-0.217 -1.089,-0.172 -0.234,0.093 -0.329,0.468 -0.774,0.552 -0.644,0.122 -1.027,-0.291 -1.154,-0.814 -0.075,-0.305 -0.042,-0.27 -0.322,-0.368 -1.664,-0.58 -5.768,-0.913 -6.537,-1.485 0.201,-0.383 1.934,-1.749 2.469,-2.281l2.535 -2.253c0.432,-0.288 2.215,0.267 2.595,0.442 -0.261,0.96 -0.765,1.212 -1.629,1.581 -0.5,0.214 -0.86,-0.016 -1.249,0.364 -0.284,0.279 -0.4,0.742 -0.321,1.264zm19.755 -3.384c0.364,0.101 0.955,0.449 1.148,0.662 0.15,0.165 0.213,0.403 0.336,0.584 0.159,0.234 0.26,0.255 0.361,0.594 -0.538,-0.132 -1.656,-1.084 -1.845,-1.84zm-11.679 -0.442c0.498,0.159 1.248,0.685 1.335,1.384 -0.277,-0.068 -0.613,-0.726 -1.152,-1.174 -0.127,-0.105 -0.112,-0.069 -0.183,-0.21zm0.548 -0.281l1.367 0.374c-0.012,0.01 -0.029,0.008 -0.035,0.024 -0.006,0.016 -0.025,0.017 -0.034,0.02l-0.314 0.066c-0.784,0.045 -0.838,-0.308 -0.984,-0.484zm10.813 -1.709c1.097,-0.051 2.587,1.399 2.799,2.164 -0.37,-0.089 -1.263,-0.765 -1.547,-0.975 -0.359,-0.263 -1.214,-0.784 -1.252,-1.189zm-0.829 -0.004c0.543,0.157 1.125,0.96 1.477,1.291 0.415,0.391 0.967,0.882 1.172,1.646 -0.493,-0.142 -1.4,-0.905 -1.638,-1.18 -0.395,-0.458 -0.818,-1.034 -1.011,-1.757zm-1.399 -0.1l1.011 0.031 0.436 1.246c-0.499,-0.177 -1.361,-0.817 -1.447,-1.277zm-10.111 -0.455c0.487,0.181 0.726,0.583 1.682,0.709 0.458,0.061 1.398,0.106 1.595,0.773 -1.063,-0.076 -3.092,-0.679 -3.277,-1.482zm-1.437 -0.452l0.413 0.008c0.24,0.415 0.508,0.616 0.82,0.929 0.332,0.333 0.511,0.455 1.068,0.682 1.334,0.545 2.123,0.398 2.412,1.141 -1.299,-0.052 -2.974,-0.925 -3.852,-1.727 -0.311,-0.284 -0.724,-0.484 -0.861,-1.033zm7.941 -0.031c0.728,0.066 2.173,0.585 2.373,1.541 -0.552,-0.144 -2.088,-0.971 -2.373,-1.541zm0.169 -0.438l5.504 0.977c-0.097,0.218 -0.428,0.16 -0.666,0.135 -0.272,-0.029 -0.526,-0.04 -0.804,-0.055 -0.539,-0.03 -1.025,-0.098 -1.52,-0.199 -0.881,-0.18 -1.807,-0.375 -2.514,-0.858zm-2.195 -0.421c0.888,-0.03 0.879,0.008 1.299,0.589 0.155,0.216 0.819,0.886 0.856,1.033 -1.02,-0.303 -1.417,-0.773 -2.155,-1.622zm-4.623 -0.276c0.759,-0.456 1.105,0.432 2.217,1.208 0.176,0.123 0.662,0.432 0.711,0.572 0.086,0.249 -0.79,0.037 -0.937,-0.024 -0.673,-0.282 -1.657,-1.188 -1.991,-1.756zm8.381 -0.265c1.347,-0.179 4.346,0.889 4.627,1.72 -0.882,-0.093 -2.552,-0.91 -3.486,-1.289 -0.337,-0.136 -0.844,-0.284 -1.141,-0.431zm-4.184 -0.138c0.977,-0.174 2.884,0.043 3.706,0.346 0.556,0.205 2.619,0.871 2.936,1.147 -0.864,0.03 -6.017,-1.152 -6.642,-1.493zm-3.522 0.022c-0.179,-0.111 -0.369,-0.171 -0.54,-0.275 0.179,-0.247 1.126,0.128 1.333,0.22 1.062,0.473 1.452,1.118 1.992,1.507 0.165,0.118 0.336,0.212 0.539,0.336 0.153,0.092 0.43,0.195 0.477,0.351 -1.207,0.189 -2.55,-1.366 -3.801,-2.139zm-16.578 0.001c0.226,-0.2 0.401,-0.21 0.706,-0.305 0.314,-0.096 0.446,-0.199 0.705,0.029 -0.195,0.2 -1.115,0.329 -1.282,0.318 -0.232,-0.015 -0.062,0.006 -0.129,-0.042zm17.026 -0.506c0.644,-0.397 2.157,0.536 2.543,0.83 0.147,0.112 0.304,0.301 0.446,0.428 0.173,0.154 0.313,0.283 0.477,0.445 0.203,0.2 0.816,0.687 0.919,0.861 -1.47,-0.195 -2.74,-1.637 -3.258,-1.93 -0.207,-0.117 -0.381,-0.184 -0.588,-0.287l-0.539 -0.347zm7.533 0.191c-1.072,0.033 -2.29,-0.027 -3.377,-0.06 -0.867,-0.027 -2.579,0.161 -2.66,-0.714 0.728,-0.219 2.258,0.211 3.12,0.218 0.971,0.008 1.78,-0.004 2.647,0.389l0.27 0.167zm-26.226 -0.511c0.307,-1.048 2.168,-0.784 2.535,0.087 -0.545,0.206 -0.766,-0.024 -1.201,-0.169 -0.542,-0.18 -0.841,-0.014 -1.334,0.082zm16.109 -1.154c0.124,-0.194 0.245,-0.174 0.446,-0.261 0.554,-0.241 0.364,-0.468 0.859,-0.199 0.571,0.311 0.64,0.406 1.354,0.627 0.331,0.102 0.709,0.182 0.931,0.375 -0.719,0.259 -1.352,-0.03 -1.877,-0.304 -1.361,-0.711 -1.214,0.207 -1.713,-0.238zm6.939 0.556c-0.696,-0.041 -0.958,-0.304 -1.344,-0.607 -0.221,-0.174 -0.975,-0.681 -1.063,-0.879 0.588,0.08 2.197,0.764 2.407,1.486zm-5.347 -1.34c0.075,-0.407 0.537,-0.689 0.909,-1.014 1.423,-1.241 3.896,-0.446 4.203,0.18 -0.828,-0.1 -1.171,-0.295 -2.083,-0.217 -0.583,0.05 -1.663,-0.027 -1.963,0.362 0.354,0.378 1.764,0.387 2.238,1.435 -0.853,-0.111 -0.968,-0.536 -1.397,-0.621 -0.07,0.168 -0.172,0.292 -0.305,0.424 -0.704,0.01 -1.196,-0.243 -1.602,-0.549zm-5.446 -1.196c0.178,-0.088 0.42,-0.005 0.536,0.139 -0.088,0.067 -0.202,0.085 -0.35,0.087 -0.125,-0.139 -0.118,-0.051 -0.186,-0.226zm3.633 0.185c0.142,-0.355 0.482,-0.282 0.872,-0.254 -0.11,0.192 -0.609,0.252 -0.872,0.254zm0.197 -0.611c0.121,-0.788 0.582,-0.685 1.329,-0.824 0.568,-0.106 1.156,-0.451 1.667,-0.497 -0.151,0.293 -0.836,0.812 -1.189,1.028 -0.569,0.347 -1.036,0.398 -1.807,0.293zm5.068 -1.057c-0.549,-0.156 -1.012,-0.105 -1.133,-0.362 0.415,-0.262 2.125,0.309 2.509,0.462 0.249,0.1 1.911,0.669 1.913,1.036 -0.852,0.064 -1.588,-0.414 -2.227,-0.724 -0.319,-0.155 -0.681,-0.304 -1.062,-0.412zm1.229 -0.258c-0.294,-0.123 -0.524,-0.145 -0.597,-0.285 0.129,-0.313 2.279,0.242 2.567,1.043 -0.436,-0.056 -1.469,-0.548 -1.97,-0.758zm-5.905 0.361c0.174,-1.002 1.63,-1.131 2.717,-0.948 -0.426,0.354 -0.701,0.344 -1.233,0.572 -0.567,0.242 -0.739,0.36 -1.484,0.376zm-21.268 -0.79c0.197,-0.139 0.761,-0.311 1.044,-0.386 0.473,-0.125 0.717,-0.023 0.976,0.241 -0.508,0.131 -1.472,0.2 -2.02,0.145zm21.651 -0.318c-0.004,-0.619 0.22,-0.746 0.699,-0.915 0.423,-0.148 0.867,-0.215 1.344,-0.263 0.959,-0.098 2.038,-0.044 2.985,0.054 0.839,0.087 1.624,0.628 2.272,0.965 0.614,0.32 1.063,0.466 1.688,0.708l0.416 0.186c0.119,0.09 0.038,0.012 0.109,0.119 -1.493,0.04 -3.223,-0.48 -4.647,-0.742 -2.277,-0.421 -2.738,-0.326 -4.866,-0.112zm-23.521 0.099c0.626,-0.161 1.733,-0.446 2.413,-0.394 -0.088,0.191 -0.903,0.382 -1.154,0.458 -0.373,0.114 -1.035,0.361 -1.259,-0.064zm-1.784 0.145c0.273,-0.431 1.687,-0.814 2.351,-0.811 -0.203,0.346 -1.817,0.763 -2.351,0.811zm-1.523 0.006c0.083,-0.132 -0.011,-0.01 0.082,-0.092 0.011,-0.01 0.046,-0.037 0.058,-0.046l0.907 -0.38c0.31,-0.098 0.93,-0.321 1.238,-0.191 -0.707,0.38 -1.27,0.737 -2.285,0.709zm-5.561 0.553c0.393,-0.369 5.669,-1.481 6.253,-1.377 -0.914,0.491 -1.823,0.677 -2.87,0.904 -0.899,0.195 -2.423,0.481 -3.383,0.473zm42.98 -0.297c-0.87,0.029 -1.727,-0.281 -2.423,-0.564 -0.36,-0.146 -0.677,-0.317 -0.982,-0.493 -0.216,-0.125 -0.733,-0.422 -0.847,-0.663 0.917,0.019 1.819,0.124 2.543,0.487 0.54,0.271 1.522,0.796 1.709,1.233zm-10.137 -1.782c0.144,-0.756 0.468,-0.755 1.228,-0.865 0.63,-0.09 1.259,-0.165 1.912,-0.174 1.161,-0.017 2.519,0.023 3.393,0.733 -1.024,0.094 -2.296,-0.014 -3.363,0.036 -0.553,0.027 -1.076,0.045 -1.624,0.094 -0.514,0.046 -1.059,0.161 -1.546,0.176zm11.682 1.201c-1.622,0.019 -3.65,-1.005 -4.512,-1.784 1.148,-0.081 4.145,1.095 4.512,1.784zm-10.692 -2.39c0.078,-0.082 -0.004,-0.026 0.133,-0.1 0.012,-0.006 0.096,-0.036 0.104,-0.039 0.071,-0.024 0.143,-0.039 0.216,-0.059 0.174,-0.047 0.305,-0.077 0.483,-0.117 1.472,-0.331 1.867,-0.484 2.71,0.273 -0.516,0.046 -1.26,-0.034 -1.818,-0.034 -0.626,0.001 -1.232,0.063 -1.828,0.076zm-31.331 2.234c0.331,-0.567 2.124,-1.103 3.014,-1.317 1.461,-0.351 5.905,-1.141 7.396,-1.256 0.968,-0.076 3.199,-0.158 4.048,0.135 -0.088,0.274 -0.178,-0.017 -0.285,0.478 1.173,-0.106 1.872,-0.349 3.165,0.146l0.623 0.259c0.039,0.028 -0.001,0.074 0.231,0.061l0.138 -0.352c0.282,-0.004 1.564,0.155 1.804,0.425 -0.532,0.087 -0.972,0.238 -1.572,0.269 -2.02,0.103 -2.236,-0.868 -4.861,-0.391 -1.229,0.224 -1.951,-0.298 -3.183,-0.37 -0.697,-0.041 -2.838,-0.063 -3.117,0.498 0.4,0.089 0.578,-0.007 0.963,-0.084 0.993,-0.196 1.958,-0.067 2.959,0.045 0.589,0.066 1.249,0.454 1.73,0.361 0.625,-0.121 1.162,-0.271 1.868,-0.279 1.422,-0.015 2.264,0.671 3.759,0.529 0.708,-0.068 1.296,-0.039 1.924,0.186 0.482,0.172 1.096,0.567 1.514,0.672 -0.032,-0.288 -0.036,-0.231 -0.24,-0.382 -0.461,-0.342 -1.003,-0.52 -1.15,-0.641 0.6,-0.227 1.566,0.406 2.041,0.762 0.19,0.143 0.281,0.34 0.481,0.431 -0.01,-0.352 -0.125,-0.541 -0.315,-0.734 -0.108,-0.109 -0.432,-0.364 -0.505,-0.493 1.344,0.193 1.723,0.87 2.193,0.905 0.002,-0.346 -0.06,-0.291 -0.146,-0.556 0.549,0.121 0.978,0.613 1.497,0.717l-0.015 -0.454c0.275,0.034 1.039,0.557 1.165,0.709 -0.088,0.484 -0.587,0.95 -0.875,1.194 -0.522,0.444 -0.913,-0.003 -1.538,-0.159 -3.453,-0.86 -4.202,0.523 -7.292,0.319 -2.833,-0.187 -6.034,-1.87 -10.06,-2.26 -1.294,-0.125 -2.595,-0.141 -3.876,0.013 -1.106,0.133 -2.907,0.563 -3.483,0.614zm43.974 -0.22c-1.68,0.276 -2.477,-0.557 -3.695,-1.001 -0.835,-0.304 -3.02,-0.873 -3.371,-1.465 1.23,0.076 6.575,1.387 7.066,2.466zm-9.133 -2.789c0.528,-0.074 0.865,-0.234 1.24,0.091 0.168,0.145 0.66,0.622 0.752,0.75 -0.515,0.045 -0.828,-0.034 -1.196,-0.261 -0.187,-0.115 -0.755,-0.41 -0.796,-0.58zm19.346 1.795c-0.076,0.094 0.009,0.01 -0.089,0.088l-0.19 0.099c-2.298,0.895 -5.162,-0.176 -7.26,-1.085l-2.142 -0.949c0.599,-0.086 3.813,0.925 4.643,1.119 1.716,0.4 3.184,0.606 5.038,0.728zm-8.62 0.317c-1.866,0.344 -4.323,-1.23 -5.704,-1.558 -0.787,-0.187 -1.308,-0.143 -1.527,-0.885 0.292,0.081 0.593,0.204 0.918,0.285 1.516,0.376 3.692,0.482 5.037,1.041 0.482,0.2 1.202,0.643 1.276,1.117zm-7.706 -2.51l0.159 0.593 -1.224 -0.501 1.065 -0.092zm6.979 1.399c-0.845,-0.599 -1.973,-0.845 -3.039,-0.96 -0.405,-0.044 -0.837,-0.068 -1.231,-0.116 -0.309,-0.038 -0.858,-0.088 -1.033,-0.341 1.573,-0.276 3.291,0.25 4.662,0.676 0.771,0.24 3.487,1.248 3.63,1.761 -2.081,0.253 -2.166,-0.436 -2.989,-1.02zm-18.731 4.765c0.234,-1.155 1.75,-1.917 1.828,-2.033 0.223,-0.332 -0.26,-2.625 2.691,-3.757 0.579,-0.222 3.18,-0.848 4.069,-1.09 1.462,-0.398 2.903,-0.464 4.499,-0.604 1.68,-0.146 3.165,-0.259 4.833,0.03 2.812,0.487 5.306,1.825 7.976,2.341 2.131,0.411 3.098,0.134 4.856,0.259 -0.863,0.781 -3.444,0.636 -4.719,0.44 -1.599,-0.246 -3.027,-0.64 -4.506,-1.075 -3.343,-0.981 -6.066,-1.339 -9.863,-1.028 -1.244,0.102 -5.968,0.733 -6.986,1.391 -0.368,0.238 -0.9,1.066 -1.139,1.624 -0.584,1.366 -0.761,2.804 -1.597,3.974 -0.358,0.501 -0.94,0.805 -1.658,1.104 -0.886,0.37 -1.752,0.411 -1.924,0.818 0.474,0.106 1.919,-0.341 2.519,-0.415 1.69,-0.209 1.526,0.269 1.706,0.42 0.106,0.089 0.276,0.121 0.378,0.173 0.073,0.038 0.051,0.027 0.087,0.061 -0.254,0.223 -0.347,0.242 -0.736,0.13 -0.365,-0.105 -0.487,-0.037 -0.83,-0.087 -0.287,-0.042 -0.494,-0.148 -0.817,-0.067 -0.332,0.084 -0.165,0.302 -0.387,0.546 -0.265,-0.183 -0.25,-0.348 -0.7,-0.402 0.179,1.511 2.521,1.058 3.878,1.111 0.104,0.189 0.097,0.527 0.188,0.747 0.085,0.205 0.208,0.336 0.259,0.587 -1.7,0.072 -1.156,-0.732 -1.953,-0.805 -0.043,0.505 0.135,0.356 0.367,0.669 0.154,0.208 0.285,0.384 0.446,0.566l0.984 1.104c-1.641,0.161 -0.854,-0.482 -1.719,-0.713 -0.007,0.012 -0.014,0.027 -0.018,0.037l-0.057 0.218c0.006,0.217 0.21,0.292 0.374,0.435 0.439,0.383 0.177,0.17 0.796,0.302 0.543,0.116 1.249,0.487 1.422,0.818 -0.577,0.421 -0.919,-0.574 -1.771,-0.348 0.105,0.358 1.754,0.972 2.199,1.234 0.526,0.31 1.587,1.073 1.543,1.808 -0.112,-0.092 -0.287,-0.219 -0.41,-0.318 -0.152,-0.122 -0.244,-0.243 -0.41,-0.372 -0.293,-0.228 -0.562,-0.443 -0.899,-0.667 -0.38,-0.253 -1.545,-1.034 -2.107,-0.987 -0.022,0.359 0.045,0.241 0.272,0.381 0.17,0.105 0.136,0.256 0.166,0.478 0.049,0.377 0.141,0.85 0.148,1.206 -0.102,0.069 -0.534,0.346 -0.62,0.477 -0.194,0.295 -0.055,0.616 -0.259,0.79 -0.242,-0.301 -0.047,-0.475 -0.369,-0.64 -0.114,0.145 -0.124,0.358 -0.194,0.547 -0.035,0.095 0.002,0.006 -0.045,0.102 -0.003,0.008 -0.015,0.038 -0.018,0.032 -0.003,-0.007 -0.012,0.021 -0.019,0.031 -0.176,-0.123 -0.352,-0.321 -0.507,-0.391 -0.166,0.135 -0.169,0.219 -0.298,0.357l-0.14 -0.504c0.648,-0.145 1.19,-0.469 1.158,-1.225 -0.016,-0.378 -0.073,-0.715 -0.07,-1.11 0.004,-0.432 0.182,-0.618 0.043,-0.915 -0.781,0.593 0.542,2.218 -1.067,2.937 -0.86,0.384 -0.855,-0.065 -0.955,1.472 -0.494,-0.178 -0.218,-0.726 -0.559,-1.045 -0.115,0.091 -0.179,0.31 -0.239,0.447 -0.07,0.161 -0.117,0.315 -0.221,0.47 -0.269,-0.094 -0.21,-0.304 -0.328,-0.695 -0.482,0.045 -0.33,0.435 -0.627,0.541 -0.263,-0.796 0.571,-0.838 0.902,-0.875 0.347,-0.038 0.98,-0.364 1.326,-0.511 0.393,-0.168 0.287,-0.061 0.469,-0.451 0.446,-0.955 0.754,-0.742 0.315,-2.049 -0.464,-1.383 -0.696,-1.269 -2.045,-1.685 -1.322,-0.407 -1.153,-1.247 -1.663,-2.005 -2.049,-0.094 -1.048,-0.503 -2.22,-0.589 -1.293,-0.096 -2.876,-0.022 -4.016,-0.135 -0.507,-0.051 -0.765,-0.043 -0.977,-0.413 -0.412,-0.716 -1.116,-0.596 -1.491,-1.267 0.065,-0.226 0.349,-0.469 0.564,-0.58 0.673,-0.349 1.39,-0.13 1.995,-0.011 0.294,0.058 0.758,-0.002 1.073,-0.009 0.618,-0.013 0.502,-0.177 0.887,-0.262 0.241,-0.053 0.858,-0.021 1.138,-0.021 0.347,-0.001 0.822,-0.031 1.152,0.004 0.448,0.046 0.009,0.115 0.992,0.16 -0.117,0.422 -0.23,0.432 -0.278,0.981 0.588,-0.129 0.319,-0.373 0.751,-0.546 0.342,-0.138 0.736,-0.031 1.113,-0.022 0.788,0.019 0.697,-0.244 0.824,-0.435 0.2,-0.302 0.675,-0.147 1.08,-0.159l0.205 -0.489c0.555,0.001 0.864,0.077 0.96,-0.488l-1 -0.065zm-14.364 -5.646l-0.182 0.073c-0.055,0.012 -0.131,0.014 -0.187,0.007 -0.273,-0.033 -0.107,-0.135 -0.922,-0.095 -0.403,0.02 -0.83,0.059 -1.173,0.159l-1.543 0.08c-0.25,-0.001 -0.545,0.107 -0.809,0.155 -0.318,0.058 -0.512,0.112 -0.797,0.169 -0.527,0.104 -1.067,0.201 -1.599,0.336 -1.078,0.274 -2.115,0.462 -3.098,0.815 -0.491,0.177 -0.861,0.407 -1.322,0.613 -0.425,0.19 -0.704,0.401 -1.314,0.62 -0.357,0.128 -1.924,0.805 -2.318,1.089 -0.143,0.103 -0.193,0.101 -0.209,0.298 1.831,0 2.001,-0.089 3.513,-0.309 1.378,-0.2 2.254,-0.202 3.626,-0.242 1.041,-0.03 1.709,-0.189 2.933,-0.034l1.394 0.143 0.056 0.003c0.244,-0.138 0.999,0.011 1.396,-0.091 0.562,-0.146 0.377,-0.174 1.265,-0.185l0.739 -0.039c0.13,-0.012 0.023,-0.02 0.14,-0.003 0.116,0.017 0.064,-0.004 0.135,0.047 0.5,0.127 1.026,0.202 1.522,0.331 0.521,0.137 0.997,0.276 1.525,0.422 3.38,0.936 3.483,0.526 6.764,0.248 0.854,-0.073 2.856,-0.122 3.306,0.431 -0.645,0.039 -1.275,0.106 -1.925,0.143 -0.684,0.04 -1.376,0.002 -2.058,0.028 -1.551,0.059 -3.482,0.747 -4.945,1.269 -0.779,0.277 -0.803,0.271 -1.249,0.825 -0.605,0.749 -0.847,0.429 -1.312,0.759 -0.323,0.229 -0.621,0.861 -0.736,1.419 0.661,0.048 0.44,-0.304 0.945,-0.475 0.335,-0.113 0.909,-0.042 1.237,0.068 -0.091,0.468 -0.586,0.81 -0.48,1.228 0.274,0.116 0.612,-0.31 1.615,-0.526 1.659,-0.358 3.699,-0.118 5.417,-0.008 0.496,0.032 0.473,0.134 0.815,0.318 0.715,0.387 1.115,-0.032 1.541,0.714 0.389,0.68 0.164,0.981 0.962,1.341 1.182,0.533 2.005,-0.009 2.441,2.166 -0.542,-0.038 -1.259,-0.216 -1.778,-0.344 -1.04,-0.255 -0.917,-0.035 -1.471,0.462 -0.753,0.678 -1.518,1.321 -2.258,2.025l-1.105 1.014c-0.382,0.348 -0.807,0.631 -1.167,0.997 -0.558,0.569 -1.113,0.969 -1.69,1.488 -0.138,0.123 -0.432,0.412 -0.521,0.579 0.75,0.402 6.404,1.422 7.715,1.718 0.765,0.172 0.526,0.127 0.845,0.718 0.148,0.276 0.553,0.602 0.933,0.678 1.081,0.218 1.22,-0.609 1.779,-0.547 0.206,0.023 0.451,0.085 0.667,0.13 1.736,0.365 3.53,0.675 5.25,1.056 0.764,0.17 1.9,0.473 2.698,0.473 0.246,-0.254 0.438,-0.525 0.651,-0.815l1.847 -2.62c0.416,-0.601 0.791,-1.15 1.211,-1.736 0.235,-0.326 1.114,-1.411 1.171,-1.83 -0.385,-0.277 -0.879,-0.91 -1.228,-1.339 -0.382,-0.469 -1.355,-0.44 -2.128,-0.508 -0.788,-0.068 -1.567,-0.146 -2.353,-0.216 -0.774,-0.069 -1.663,-0.098 -2.422,-0.204 -0.057,-0.179 -0.322,-0.847 -0.326,-0.885 0.66,-0.108 0.936,-0.185 1.504,-0.39 0.009,-0.423 -0.158,-0.421 -0.273,-0.639 0.214,-0.132 0.228,-0.039 0.407,-0.226 0.005,-0.412 -0.622,-0.668 -0.804,-0.999 0.804,-0.46 2.837,-0.259 3.805,-0.072 1.162,0.223 2.395,1.128 3.005,1.259 -0.014,-0.741 -1.125,-1.179 -1.214,-1.797 1.107,0.016 0.266,-0.015 1.571,1.186 0.496,0.457 1.196,0.607 1.561,1.203 0.666,1.09 1.343,2.634 2.962,2.643l-0.139 -0.744 0.784 0.293c-0.115,-0.578 -0.347,-0.145 -0.849,-0.899 -0.18,-0.271 -0.451,-0.861 -0.544,-1.217 0.317,0.093 0.762,0.389 0.923,0.563 0.207,0.222 0.416,0.621 0.633,0.835 0.227,-1.389 -0.848,-2.477 -1.792,-3.222 -0.141,-0.112 -0.296,-0.198 -0.409,-0.319 0.494,-0.038 0.449,0.098 0.776,-0.188 -0.138,-0.293 -0.884,-0.626 -1.267,-0.849 -0.48,-0.279 -0.81,-0.588 -1.313,-0.851 -1.081,-0.563 -3.377,-1.544 -4.663,-1.732 -1.745,-0.256 -1.12,-0.077 -1.532,-0.638 -0.415,-0.565 -1.252,-0.964 -1.939,-1.285 -0.194,-0.091 -0.619,-0.259 -0.69,-0.404 0.871,-0.214 1.768,0.388 2.602,0.226 -0.012,-1.829 -3.119,-1.466 -4.657,-1.42 0.062,-0.203 0.297,-0.464 0.475,-0.558 1.449,-0.762 4.586,1.735 5.777,1.199 0.124,-0.413 -0.11,-0.923 -0.152,-1.325 0.444,-0.03 1.096,0.048 1.562,0.068 1.369,0.059 1.135,0.163 1.12,-0.332 0.426,-0.009 0.637,0.062 0.985,-0.13 -0.067,-0.413 -0.317,-0.247 -0.511,-0.607 1.11,0.047 0.791,0.176 1.748,-0.082 0.316,-0.085 0.962,-0.14 1.312,-0.151 0.1,-0.003 0.415,0.013 0.474,-0.058 0.222,-0.27 -0.326,-0.626 0.303,-0.624l2.474 -0.036c0.427,-0.027 0.723,-0.107 1.106,-0.194 0.367,-0.083 0.887,-0.056 1.11,0.174l1.317 0.12c0.622,0 1.808,0.065 2.352,-0.024 0.704,-0.116 1.301,-0.272 1.923,-0.427 0.546,-0.137 2.971,-0.793 3.168,-1.529 -0.645,-0.309 -2.144,0.373 -3.888,0.112 -0.484,-0.073 -1.276,-0.097 -1.915,-0.204 -0.573,-0.095 -1.14,-0.211 -1.612,-0.516l-1.497 -0.403c-0.212,-0.035 -0.754,-0.275 -0.994,-0.374 -0.149,-0.061 -0.33,-0.148 -0.48,-0.207 -0.18,-0.07 -0.371,-0.051 -0.559,-0.119 -0.138,-0.01 -0.911,-0.349 -1.191,-0.432 -2.837,-0.844 -7.636,-0.6 -10.348,-0.078 -0.85,0.164 -4.254,1.027 -5.213,1.286 -2.581,0.698 -2.52,2.436 -3.158,3.287 -0.632,-0.277 -1.033,-0.646 -1.445,-0.861 -1.755,-0.918 -3.885,-0.367 -5.958,-0.951 -2.337,-0.659 -5.555,-1.035 -8.162,-0.945zm-10.929 49.596c0.018,-1.025 0.584,-0.691 2.54,-1.076 4.818,-0.95 9.02,-2.701 13.48,-4.615 1.199,-0.514 2.41,-1.227 3.591,-1.802 0.427,-0.208 0.839,-0.537 1.361,-0.304 -0.146,0.35 -4.377,2.4 -4.657,2.538 -3.073,1.518 -6.997,3.005 -10.361,4.002 -1.486,0.441 -4.277,1.307 -5.954,1.257zm60.848 -20.208l0 0.166c-0.031,0.398 -0.617,2.093 -0.765,2.549l-0.258 0.802c-0.326,1.193 -0.728,2.023 -0.931,3.443 -0.059,0.413 -0.086,0.56 -0.189,0.916 -0.352,1.211 -1.361,2.384 -2.447,2.987 -0.881,0.49 -1.108,0.425 -1.534,0.63 0.096,0.413 0.328,0.823 0.493,1.211 0.739,1.732 2.225,3.97 2.907,5.611 0.209,0.501 0.779,1.465 0.935,2.013 0.03,0.106 0.037,0.228 0.086,0.329 -0.785,0 -2.644,-0.33 -3.482,-0.525 -0.294,-0.068 -0.573,-0.101 -0.847,-0.166 -1.331,-0.318 -2.716,-0.556 -4.069,-0.951 -0.536,-0.156 -1.027,-0.275 -1.544,-0.437l-1.561 -0.464c-0.809,-0.223 -4.171,-1.428 -5.138,-1.862 -0.253,-0.114 -0.455,-0.191 -0.705,-0.308 -0.241,-0.112 -0.459,-0.215 -0.7,-0.313 -0.958,-0.388 -5.497,-2.77 -5.702,-3.217 0.151,-0.132 0.638,-0.212 0.885,-0.24 0.034,0.39 0.361,0.468 0.998,0.828 1.525,0.861 1.973,1.105 3.662,1.911 4.894,2.335 8.816,3.36 14.004,4.564 0.81,0.188 2.338,0.49 3.216,0.473 0.09,-1.021 -0.989,-0.775 -2.547,-1.11 -5.288,-1.137 -9.176,-2.202 -14.141,-4.411 -1.567,-0.697 -2.225,-1.071 -3.651,-1.878 -0.614,-0.347 -0.645,-0.412 -1.52,-0.379 0.316,-0.096 0.155,0.021 0.341,-0.24 0.205,-0.002 0.568,0.008 0.758,-0.025 0.443,-0.076 -0.141,-0.032 0.561,-0.219 0.211,-0.056 0.426,-0.086 0.658,-0.14 0.509,-0.118 0.396,-0.109 0.491,-0.293 0.145,-0.006 0.304,-0.03 0.388,-0.036 0.147,-0.012 0.232,0.03 0.425,0.03l0.1 -0.236 0.482 -0.014c0.162,-0.281 0.289,-0.236 0.724,-0.237 0.204,-0.076 0.054,0.053 0.138,-0.205l0.507 -0.014 0.108 -0.22 0.49 -0.019 0.123 -0.203c0.634,-0.033 0.412,-0.033 0.522,-0.197 0.269,-0.006 0.525,-0.097 0.715,0.032l1.365 0.535c1.303,0.456 3.344,0.825 4.739,0.921 2.259,0.157 4.812,0.094 6.447,-1 3.759,-2.515 2.454,-7.791 -1.429,-9.263 -1.971,-0.746 -4.633,-0.103 -6.653,0.27 -7.092,1.31 -12.463,2.648 -20.105,2.531 -4.724,-0.073 -9.15,-0.677 -13.579,-1.513 -3.519,-0.664 -9.889,-2.291 -12.966,-0.337 -3.566,2.263 -4.063,7.433 0.107,9.325 2.779,1.261 8.445,0.345 11.609,-0.422 0.386,-0.094 1.134,-0.254 1.462,-0.4 0.501,-0.035 0.467,0.15 0.748,0.182 0.124,0.014 0.32,-0.009 0.453,0.012 0.271,0.043 0.128,0.065 0.285,0.217 0.131,-0.001 0.328,-0.003 0.456,0.013 0.277,0.034 0.18,0.086 0.318,0.177 0.267,0.174 0.446,-0.088 0.678,0.256 0.006,0.008 0.014,0.024 0.022,0.035 0.182,-0.008 0.479,-0.02 0.629,0.035 0.146,0.054 0.075,0.087 0.208,0.132 0.119,0.041 0.176,-0.005 0.313,0.032 -0.299,-0.018 -0.615,0.039 -0.838,-0.125 -0.311,-0.228 0.222,0.06 -0.082,-0.066 -0.353,0.024 -0.619,0.035 -0.826,-0.131 -0.203,-0.163 -0.035,-0.118 -0.373,-0.135 -0.095,-0.005 -0.111,0.015 -0.194,-0.033 -0.106,-0.061 -0.014,0.002 -0.069,-0.071l-0.702 -0.15c-0.09,-0.176 0.175,-0.286 -0.649,-0.114 -1.753,0.366 -3.405,0.805 -5.199,1.107 -1.034,0.174 -2.141,0.341 -3.225,0.374 -1.19,0.037 -2.336,-0.086 -3.517,-0.021 -0.353,0.308 -2.59,5.745 -2.714,6.563 2.891,-0.147 7.528,-1.721 10.214,-2.754 2.315,-0.89 4.579,-1.869 6.774,-2.938 0.389,-0.19 0.725,-0.34 1.094,-0.521 0.297,-0.146 0.866,-0.413 0.962,-0.712l1.277 0.166c0.337,0.033 0.143,0.187 0.455,0.277 0.187,0.055 0.413,0.027 0.596,0.116 -0.074,0.142 -0.999,0.667 -1.202,0.768l-2.902 1.519c-0.753,0.406 -1.516,0.738 -2.286,1.121l-1.337 0.598c-0.444,0.216 -0.926,0.396 -1.382,0.598 -1.159,0.512 -2.981,1.16 -4.264,1.584 -2.508,0.83 -6.973,2.193 -9.504,2.193l0.454 -1.112c0.854,-2.137 1.757,-4.601 2.644,-6.657l0.448 -1.072c-0.367,-0.031 -1.27,-0.448 -1.539,-0.626 -0.646,-0.426 -1.241,-0.957 -1.676,-1.594 -0.089,-0.13 -0.147,-0.188 -0.224,-0.328 -0.386,-0.7 -0.569,-1.039 -0.698,-1.973 -0.048,-0.341 -0.088,-0.653 -0.185,-0.92l-0.53 -1.082c-0.07,-0.152 -0.11,-0.22 -0.174,-0.378l-0.454 -1.158c-0.113,-0.279 -0.281,-1.015 -0.315,-1.297 -0.075,-0.632 -0.15,-1.269 -0.285,-1.833 -0.33,-1.388 0.415,-2.367 1.02,-3.126 0.321,-0.403 0.65,-0.801 1.053,-1.112 1.442,-1.114 1.891,-1.243 3.621,-1.813 0.751,-0.247 2.909,-0.575 3.701,-0.581 0.298,-0.003 0.69,-0.027 1.013,-0.057 0.201,0.061 0.703,0.046 0.968,0.049 0.191,0.158 -0.029,0.045 0.282,0.118 0.271,0.064 1.814,0.034 2.309,0.074 3.435,0.176 5.27,0.761 8.656,1.417 9.247,1.789 16.18,0.736 25.066,-0.891 0.761,-0.14 1.426,-0.203 2.202,-0.306 0.222,0.024 1.417,-0.135 1.674,-0.186 0.282,-0.056 0.49,-0.124 0.752,-0.166l0.603 -0.062c0,0 0.082,0.01 0.199,-0.089l0.271 -0.039c0.369,-0.128 1.514,-0.235 2.03,-0.158 0.348,0.053 0.667,0.036 1.014,0.091 0.756,0.121 1.043,0.17 1.77,0.395 0.134,0.041 0.298,0.08 0.426,0.126 1.146,0.417 2.271,0.949 3.244,1.684 0.626,0.473 1.988,1.503 2.193,2.135 0.097,0.299 -0.005,0.766 0.008,1.02 0.014,0.293 0.229,0.291 0.259,0.62zm-18.466 10.321c0.24,-0.008 0.361,0.03 0.464,-0.067 0.006,-0.007 0.015,-0.02 0.021,-0.026l0.045 -0.062c0.004,-0.019 0.014,-0.025 0.023,-0.035 0.623,-0.026 0.848,0.113 1.328,0.308 1.222,0.497 2.408,0.807 3.759,0.999 2.09,0.298 3.814,0.274 6.011,0.264 0.099,0.021 0.141,0.121 0.18,0.215 0.427,1.04 1.083,2.211 1.636,3.194 0.3,0.533 1.649,2.968 1.683,3.461 -0.367,0.01 -1.053,-0.137 -1.443,-0.202 -4.63,-0.784 -13.025,-3.407 -16.999,-5.704 -0.757,-0.438 -0.84,-0.371 -0.834,-0.805 0.418,-0.37 0.462,0.086 0.744,-0.376 0.075,-0.003 0.458,0.022 0.502,-0.176 0.005,-0.02 0.016,-0.023 0.025,-0.034 0.81,0.007 0.737,-0.012 0.998,-0.293 0.06,-0.001 0.331,0.002 0.369,-0.011 0.155,-0.056 0.049,-0.058 0.152,-0.195l0.645 -0.01c0.005,-0.014 0.018,-0.059 0.022,-0.068 0.04,-0.078 0.03,-0.054 0.07,-0.104 0.131,-0.008 0.294,0.015 0.409,-0.036 0.125,-0.054 0.129,-0.16 0.19,-0.237zm-43.933 -4.409c-0.303,-0.219 -0.782,-1.44 -0.96,-1.928 -0.282,-0.77 -0.445,-1.519 -0.371,-2.483 0.11,-1.424 1.28,-3.052 2.038,-3.714 1.028,-0.898 2.22,-1.539 3.822,-1.937 1.543,-0.383 3.544,-0.57 5.269,-0.446 1.795,0.129 3.461,0.265 5.178,0.564 1.649,0.287 3.273,0.552 4.889,0.861 1.633,0.312 3.287,0.539 4.945,0.801 4.859,0.769 11.304,0.132 15.998,-0.634l9.881 -1.619c1.755,-0.275 3.644,-0.273 5.216,0.186 1.482,0.433 2.702,1.201 3.776,1.981 0.497,0.362 1.085,0.923 1.463,1.436 0.964,1.309 1.04,0.928 0.718,1.793 -0.349,0.939 -1.025,3.767 -1.436,4.261 -0.265,-0.518 -0.403,-1.098 -0.733,-1.656 -0.831,-1.404 -2.461,-2.667 -4.248,-2.878 -2.179,-0.256 -6.34,0.617 -8.397,1.082 -2.667,0.604 -5.339,1.011 -8.085,1.4 -2.838,0.402 -5.894,0.566 -8.891,0.588 -4.278,0.032 -8.781,-0.557 -12.901,-1.33 -1.334,-0.25 -2.688,-0.455 -4.027,-0.723 -2.377,-0.476 -6.038,-1.082 -8.487,-0.43 -1.932,0.514 -3.082,1.646 -3.917,3.226 -0.126,0.239 -0.661,1.513 -0.74,1.599zm-1.579 -5.231c-0.369,-1.516 0.868,-2.74 1.5,-3.358 2.974,-2.906 7.851,-3.092 12.007,-2.645 6.563,0.706 10.684,2.354 17.591,2.386 6.256,0.029 12.017,-1.093 17.904,-2.06 4.474,-0.736 8.18,-1.582 12.166,1.386 0.266,0.197 0.453,0.369 0.683,0.562l1.302 1.183c0.329,0.342 0.3,0.383 0.147,0.936 -0.115,-0.064 -1.476,-1.468 -1.93,-1.822 -1.211,-0.946 -2.263,-1.683 -3.97,-2.111 -2.692,-0.677 -6.129,0.019 -8.789,0.483 -5.553,0.967 -11.701,2.139 -17.605,1.973 -3.16,-0.09 -5.928,-0.389 -8.881,-0.943 -5.088,-0.954 -12.123,-2.559 -17.182,-0.813 -1.056,0.365 -1.934,0.839 -2.762,1.522 -0.729,0.603 -1.41,1.539 -1.819,2.463 -0.066,0.148 -0.113,0.27 -0.172,0.426l-0.125 0.341c-0.038,0.071 -0.023,0.046 -0.065,0.091zm27.775 -37.781l7.644 0.019 0.012 0.865 -7.649 -0.046 -0.007 -0.838zm2.971 -21.077l0.859 0c0.122,0.231 0.12,0.436 0.212,0.709 0.535,1.584 1.002,1.818 2.523,2.864 0.484,0.333 1,0.887 1.239,1.432 0.102,0.231 0.168,0.419 0.235,0.686 0.061,0.238 0.094,0.501 0.169,0.706 0.202,0.55 0.833,0.251 1.155,0.011 0.156,-0.116 0.874,-0.755 1.006,-0.791l0.366 2.812c0.095,1.189 0.001,3.295 -0.315,4.377 -0.413,1.413 -0.834,2.394 -0.834,3.909l0.46 0 0 1.382 -1.427 0 0 1.335 0.506 0 0 1.381c-0.265,0 -0.37,0.063 -0.59,0.042 -0.167,-0.015 -0.371,-0.083 -0.561,-0.088 0,0.313 0.087,1.124 -0.092,1.378l-8.105 0.01 0 -1.203c-0.327,-0.158 -0.799,-0.139 -1.29,-0.139l0 -1.381 0.553 0 0 -1.335c-0.836,0 -0.982,0.191 -1.473,-0.139l0 -1.243 0.414 0c0,-0.28 -0.213,-0.938 -0.233,-1.658 -0.008,-0.262 0.043,-0.313 0.05,-0.551 0.026,-0.861 0.028,-1.578 0.093,-2.393 0.256,-3.191 -0.843,-3.086 -1.015,-3.825 0.171,-0.256 0.229,-0.152 0.322,-0.552 0.415,0.219 0.802,0.391 1.189,0.653 0.262,0.176 0.746,0.701 1.021,0.774 0,-0.907 0.38,-1.828 0.857,-2.551 0.24,-0.366 0.466,-0.646 0.716,-0.987 1.232,-1.676 1.846,-2.712 1.834,-4.982 -0.002,-0.439 0.006,-0.594 0.156,-0.643zm-4.242 20.571l-0.001 -0.883c0.759,-0.077 10.026,-0.04 10.133,0.007 0.094,0.216 0.027,0.568 0.019,0.835 -0.487,0.111 -4.246,0.05 -5.051,0.051 -0.977,0.001 -4.416,0.049 -5.1,-0.01zm0.548 -2.249l9.084 -0.015 -0.002 0.887 -9.077 0.018 -0.005 -0.89zm6.248 -1.61c0.006,-0.45 0.926,-2.667 1.191,-3.417 0.069,-0.198 0.09,-0.329 0.219,-0.467 -0.002,0.977 0.01,1.19 0.306,2.001 0.105,0.287 0.218,0.538 0.328,0.821 0.091,0.237 0.193,0.589 0.313,0.786 0.414,0.036 0.737,-0.122 0.713,0.321l-3.07 -0.045zm-4.332 -3.5c0.173,-0.182 0.11,-1.817 0.209,-2.373 0.461,0.343 1.375,1.662 1.748,2.319 0.483,0.854 0.685,2.42 0.443,3.545 -0.779,0.028 -1.612,0.029 -2.387,0.04 -0.935,0.012 -1.184,-0.165 -1.505,-0.872 -0.268,-0.592 -0.312,-1.513 0.151,-1.89 0.327,-0.265 0.342,-0.363 0.309,-0.904 -0.019,-0.302 -0.116,-0.83 -0.09,-1.08 0.866,0.306 0.577,0.638 1.122,1.215zm6.037 0.188c0.001,-0.967 0.459,-2.045 0.789,-2.81 0.286,-0.66 0.904,-1.964 1.326,-2.244 0.21,1.951 -0.572,5.691 -0.769,7.77l-0.464 0.015 -0.53 -1.279c-0.187,-0.453 -0.352,-0.885 -0.352,-1.452zm-3.202 3.254c-0.326,-2.205 1.114,-2.686 0.665,-6.089 -0.07,-0.538 -0.21,-1.015 -0.278,-1.49 -0.233,-1.649 -0.469,-3.09 -0.299,-4.785 0.856,0.344 1.488,3.957 1.622,5.224 0.516,-0.022 1.095,-1.289 1.269,-1.591 0.007,0.009 0.012,0.024 0.015,0.031 0.002,0.008 0.01,0.024 0.013,0.033l0.053 0.53c0.029,0.61 -0.014,1.38 -0.084,1.964 -0.223,1.868 -0.5,2.609 -1.131,4.316 -0.21,0.57 -0.517,1.426 -0.82,1.903l-1.025 -0.046zm-5.358 -6.847c0.095,0.047 0.81,0.806 0.968,0.969 0.667,0.694 0.586,0.429 0.598,0.047 0.044,-1.492 -0.094,-2.461 0.644,-3.688 0.381,-0.633 1.138,-1.457 1.645,-2.223 0.802,-1.212 0.553,-1.893 1.074,-2.793 0.256,0.036 0.628,0.792 1.536,1.457 0.597,0.436 1.253,0.799 1.647,1.3 0.12,0.153 0.201,0.284 0.269,0.467 0.067,0.181 0.066,0.423 0.159,0.58 0.24,0.406 0.054,0.616 0.376,1.094 0.188,0.277 0.62,0.474 0.987,0.497 0.552,0.035 0.704,-0.265 1.229,-0.224 0.064,0.203 0.082,1.315 0.093,1.643 0.06,1.795 0.086,2.733 -0.494,4.335 -0.027,0.076 -0.036,0.106 -0.066,0.161 -0.058,0.108 -0.032,0.059 -0.077,0.111 -0.184,-0.66 0.033,-0.777 0.08,-0.983 0.19,-0.826 0.507,-4.523 0.288,-4.999 -0.129,0.04 -0.134,0.092 -0.239,0.159 -0.13,0.083 -0.13,0.022 -0.239,0.132l-1.331 2.445c-0.175,0.373 -0.308,0.859 -0.514,1.016 0.021,-0.46 0.09,-0.751 0.095,-1.225 0.005,-0.416 0.012,-0.828 0.005,-1.244 -0.009,-0.591 0.12,-1.924 -0.35,-2.115 -0.106,0.255 -0.163,0.585 -0.396,1.118 -0.129,0.294 -0.291,0.811 -0.634,0.881 -0.423,-1.255 -0.573,-2.666 -1.157,-3.958 -0.213,-0.47 -0.271,-0.788 -0.908,-0.822 -0.152,0.531 -0.228,0.569 -0.236,1.258 -0.011,0.907 0.034,1.902 0.184,2.792 0.094,0.558 0.236,0.943 0.277,1.183 0.136,0.799 0.324,1.793 0.352,2.61 0.017,0.484 -0.034,0.91 -0.142,1.35 -0.047,0.188 -0.267,0.968 -0.379,1.018 -0.117,-0.053 -0.216,-0.52 -0.284,-0.704 -0.271,-0.726 -0.682,-1.186 -1.138,-1.807 -0.32,-0.434 -1.383,-2.067 -1.769,-2.215l0.163 2.337c-0.568,0.017 -0.771,-0.241 -1.449,-0.231 0.041,0.502 0.242,0.94 0.262,1.449 0.026,0.683 -0.284,0.722 -0.513,1.121 -0.623,1.09 0.22,2.026 0.317,2.573l-0.659 -0.001c-0.385,-1.391 -0.445,-1.74 -0.294,-3.339 0.115,-1.221 -0.03,-2.356 0.02,-3.532zm-14.85 19.126c0.343,-0.1 0.77,-0.139 1.173,-0.159 0.815,-0.04 0.649,0.062 0.922,0.095 0.056,0.007 0.132,0.005 0.187,-0.007l0.182 -0.073 -0.484 0.016 -0.003 -3.126 36.001 -0.007 -0.039 1.811c0.188,0.068 0.379,0.049 0.559,0.119 0.15,0.059 0.331,0.146 0.48,0.207 0.24,0.099 0.782,0.339 0.994,0.374 -0.177,-1.138 0.018,-4.158 -0.126,-4.313 -0.097,-0.106 -4.798,-0.048 -4.916,-0.048l-32.374 -0.039c-0.714,-0.001 -1.832,-0.066 -2.497,0.013l-0.059 5.137zm39.949 31.792c-0.336,0.08 -0.636,0.116 -0.978,0.193 -0.175,0.039 -0.342,0.049 -0.499,0.091 -0.179,0.047 -0.34,0.074 -0.523,0.096 0.202,1.577 -1.877,2.626 -2.999,3.198 -3.859,1.971 -10.568,3.686 -14.987,3.676 -4.708,-0.011 -12.898,-1.967 -16.873,-4.874 -0.627,-0.458 -1.166,-0.896 -1.087,-2.077 -0.379,0.061 -0.172,-0.008 -0.431,-0.101 -0.038,-0.014 -0.434,-0.087 -0.492,-0.096 -0.379,-0.057 -0.702,-0.062 -1.075,-0.166 0.227,2.476 0.482,3.09 2.787,4.533 1.428,0.895 3.234,1.702 4.983,2.291 3.494,1.176 8.101,2.359 12.188,2.357 5.03,-0.003 13.015,-2.02 17.193,-4.626 0.691,-0.431 1.494,-1.068 1.975,-1.663 1.076,-1.332 0.571,-2.033 0.818,-2.832zm-47.195 1.487c0.318,-0.035 0.439,0.07 0.647,0.219 1.011,0.722 2.12,1.073 3.397,1.15 0.376,0.023 1.585,-0.077 1.789,0.049 0.024,0.298 -0.275,0.28 -0.682,0.29 -0.937,0.025 -1.745,-0.09 -2.645,-0.314 -0.791,-0.197 -2.438,-0.728 -2.506,-1.394zm55.327 -0.177c-0.441,0.614 -2.059,1.096 -2.989,1.353 -1.031,0.284 -2.215,0.535 -3.301,0.528 -0.458,-0.002 -0.424,0.023 -0.45,-0.115 -0.036,-0.189 0.513,-0.211 0.778,-0.245 0.334,-0.042 0.652,-0.076 0.984,-0.118 1.525,-0.193 2.899,-0.524 4.225,-1.263 0.265,-0.148 0.466,-0.364 0.753,-0.14zm-54.92 -0.239c0.605,-0.902 2.819,-1.335 3.915,-1.335 0.421,0 0.685,0.092 1.059,0.092 0,0.617 -0.031,1.303 0.087,1.892 0.047,0.232 0.138,0.585 0.143,0.824 -2.034,0 -4.404,-0.279 -5.204,-1.473zm48.447 1.473c0,-0.537 0.204,-1.014 0.231,-1.932 0.03,-1.01 -0.368,-0.875 1.117,-1.093 1.351,-0.199 3.047,-0.175 4.159,0.696 0.196,0.153 0.512,0.418 0.571,0.672l-0.629 0.337c-0.687,0.343 -1.294,0.606 -2.078,0.824 -0.952,0.266 -2.14,0.496 -3.371,0.496zm-36.711 5.01c0.072,-0.054 0.059,-0.033 0.082,-0.123 -0.089,-0.13 -0.198,-0.183 -0.341,-0.241 -0.402,-0.161 -0.18,0.014 -0.332,-0.29l-0.303 -0.021c0.084,0.166 -0.027,0.099 0.108,0.185 0.121,0.078 0.09,-0.023 0.228,0.085 -0.01,0.191 -0.01,0.22 -0.582,0.324 -1.452,0.263 -4.42,0.757 -5.668,0.817 -2.556,0.123 -4.584,-0.198 -5.74,-1.663 -0.521,-0.66 -1.018,-1.63 -0.786,-2.783 0.105,-0.524 0.292,-0.89 0.477,-1.363 0.623,-1.601 0.787,1.046 5.358,1.001 0.562,-0.006 1.285,-0.005 1.85,-0.047 -0.179,-0.555 -0.526,-0.895 -0.667,-1.522 -0.139,-0.617 -0.114,-1.319 -0.098,-2.013 0.402,-0.098 1.106,0.09 1.522,0.04 0.373,0.104 0.696,0.109 1.075,0.166 0.058,0.009 0.454,0.082 0.492,0.096 0.259,0.093 0.052,0.162 0.431,0.101 0.677,0.112 1.398,0.3 2.086,0.421 0.74,0.132 1.435,0.236 2.17,0.371 9.163,1.682 13.713,1.892 23.142,0.793 2.359,-0.274 6.37,-0.845 8.548,-1.508 0.183,-0.022 0.344,-0.049 0.523,-0.096 0.157,-0.042 0.324,-0.052 0.499,-0.091 0.342,-0.077 0.642,-0.113 0.978,-0.193 0.384,-0.005 1.186,-0.229 1.508,-0.171 0.023,0.835 0.068,1.551 -0.156,2.316 -0.096,0.328 -0.243,0.569 -0.388,0.856 -0.025,0.051 -0.164,0.373 -0.194,0.406 -0.167,0.18 -0.266,0.002 -0.305,0.342 0.371,-0.077 0.11,-0.167 0.327,-0.243 0.226,-0.051 0.815,-0.02 1.097,-0.031 1.613,-0.062 3.438,-0.354 4.895,-1.01 0.309,-0.139 1.374,-0.711 1.598,-0.75 0.977,0.836 1.261,5.081 -2.919,5.87 -2.381,0.45 -5.371,-0.096 -7.746,-0.639 -0.407,-0.093 -0.812,-0.061 -0.75,-0.526 -0.308,0.039 -0.527,0.182 -0.568,0.479 0.489,0.09 1.838,0.506 2.748,0.691 1.014,0.207 1.973,0.36 3.039,0.456 2.982,0.269 6.156,-0.292 7.015,-3.251 0.555,-1.91 -0.436,-3.728 -1.856,-4.805 -1.691,-1.282 -3.76,-0.956 -5.756,-0.594 -7.815,1.419 -13.045,2.823 -21.529,2.823 -4.432,0 -8.486,-0.513 -12.629,-1.265 -1.974,-0.359 -3.914,-0.753 -5.9,-1.06 -1.933,-0.299 -4.405,-0.72 -6.334,-0.246 -1.323,0.326 -2.365,1.084 -3.061,2.143 -0.136,0.207 -0.185,0.372 -0.296,0.577 -0.098,0.181 -0.239,0.263 -0.368,0.507 -0.432,0.815 -0.249,2.106 0.056,2.919 1.748,4.653 9.781,2.412 13.42,1.76zm33.011 -37.205c0.201,2.473 0.153,8.099 0.153,10.829 0,2.831 0.078,8.332 -0.121,10.903 0.222,0.024 1.417,-0.135 1.674,-0.186 0.282,-0.056 0.49,-0.124 0.752,-0.166l0.603 -0.062c0,0 0.082,0.01 0.199,-0.089 -0.32,0.037 -0.911,0.134 -1.204,0.083 -0.161,-0.532 -0.055,-4.384 -0.055,-5.279l0.002 -10.683c0,-1.357 -0.057,-4.13 0.005,-5.312l0.208 -0.058c-0.223,-0.23 -0.743,-0.257 -1.11,-0.174 -0.383,0.087 -0.679,0.167 -1.106,0.194zm-39.395 1.595c0.37,-0.022 1.237,-0.073 1.536,0.043l-0.009 19.675 -0.615 0.007c0.191,0.158 -0.029,0.045 0.282,0.118 0.271,0.064 1.814,0.034 2.309,0.074l-0.043 -19.984c0.015,-0.327 -0.062,-0.193 0.215,-0.204 -0.071,-0.051 -0.019,-0.03 -0.135,-0.047 -0.117,-0.017 -0.01,-0.009 -0.14,0.003l-0.739 0.039c-0.888,0.011 -0.703,0.039 -1.265,0.185 -0.397,0.102 -1.152,-0.047 -1.396,0.091zm19.358 47.253c0.694,-0.011 3.751,-0.122 4.188,-0.01l0.008 0.655 -4.181 0.048 -0.015 -0.693zm4.187 1.076l-2.141 0 -2.041 0c-0.371,-0.058 -0.341,-0.253 -0.307,-0.828 0.042,-0.72 -0.153,-0.692 0.368,-0.692 0,-2.474 0.217,-2.21 -0.598,-2.21l0 -1.381c0.249,-0.058 0.396,-0.035 0.69,-0.054 0.287,-0.291 0.189,-1.657 0.183,-2.157 -0.006,-0.448 -0.075,-1.575 -0.048,-1.984 0.016,-0.234 -0.034,-0.156 0.096,-0.24 0.12,0.057 0.063,-0.113 0.095,0.192 0.007,0.065 -0.002,0.251 -0.002,0.328 -0.002,0.2 -0.002,0.4 -0.002,0.599 -0.002,0.75 0.047,3.173 -0.018,3.574 -0.145,0.085 -0.447,0.053 -0.636,0.057l0 0.734 4.54 0.002 0.004 -0.705 -0.678 0 0.002 -4.708c0.067,-0.2 0.013,-0.08 0.102,-0.12l0.093 0.144c0.022,0.302 0.093,0.697 0.094,1.022 0.002,0.246 -0.031,0.324 -0.046,0.509 -0.039,0.464 -0.034,2.381 0.044,2.715 0.259,0.124 0.415,0.092 0.782,0.092 0,1.672 0.118,1.381 -0.598,1.381l0 2.256c0.483,0.041 0.367,0.25 0.368,0.737 0.002,0.407 0.049,0.685 -0.325,0.734 -0.007,0.001 -0.014,0.002 -0.021,0.003zm-3.81 -3.28c0.643,-0.019 2.928,-0.089 3.431,0.015l0.019 1.471 -3.45 0.003 0 -1.489zm-19.485 -46.771c0.535,0.095 1.488,-0.268 3.159,0.027 0.515,0.091 0.86,0.22 1.274,0.435 0.553,0.289 0.618,0.362 1.364,0.204 1.859,-0.393 2.735,-0.075 4.366,0.422 0.451,0.137 0.942,0.364 1.36,0.152 -0.182,-0.489 -1.98,-0.74 -2.623,-0.875 -1.172,-0.246 -1.909,-0.256 -3.143,-0.102 -1.102,0.138 -1.783,-0.493 -2.84,-0.632 -0.734,-0.096 -2.692,-0.356 -2.917,0.369zm20.109 44.424l0.741 0.008 -0.021 -3.896 -0.74 -0.01 0.02 3.898zm1.499 -3.17l0.024 3.155 0.676 0.02 0.032 -3.909 -0.73 0.029 -0.002 0.705zm-2.342 3.632c0.287,-0.291 0.189,-1.657 0.183,-2.157 -0.006,-0.448 -0.075,-1.575 -0.048,-1.984 0.016,-0.234 -0.034,-0.156 0.096,-0.24 0.12,0.057 0.063,-0.113 0.095,0.192 0.007,0.065 -0.002,0.251 -0.002,0.328 -0.002,0.2 -0.002,0.4 -0.002,0.599 -0.002,0.75 0.047,3.173 -0.018,3.574 0.124,-0.156 0.049,-1.961 0.048,-2.285 -0.003,-0.76 -0.04,-1.652 0.008,-2.398l0.417 0.012c0.07,1.099 -0.039,2.672 0.013,3.679 0.008,0.179 -0.023,0.114 0.053,0.218l-0.02 -3.898 0.74 0.01 0.724 0.003 0.055 0.715 0.002 -0.705 0.73 -0.029 -0.032 3.909c0.122,-0.254 0.029,-3.309 0.06,-3.904 0.18,-0.043 0.302,-0.02 0.434,0.053 0.067,-0.2 0.013,-0.08 0.102,-0.12l0.093 0.144c0.087,-0.193 -0.142,0.173 0.041,-0.047 0.06,-0.073 0.017,-0.005 0.06,-0.073 0.051,-0.081 0.03,-0.049 0.054,-0.147 -0.1,-0.055 -3.736,-0.059 -3.868,0l-0.018 4.551zm-5.952 -43.755c-0.096,-0.455 -1.141,-0.729 -1.658,-0.848 -0.585,-0.134 -1.733,-0.455 -1.963,0.141 0.215,0.11 1.465,0.121 1.936,0.257 0.488,0.141 1.158,0.555 1.685,0.45zm-5.665 4.956c0.343,-0.056 0.375,-0.219 0.785,-0.147 0.321,0.057 0.513,0.102 0.737,-0.104 0.528,-0.487 0.761,-0.095 1.349,-0.265 -0.164,-0.861 -2.722,-0.421 -2.871,0.516zm30.904 29.897c0.082,-0.003 0.147,0.003 0.234,-0.023 0.223,-0.065 0.091,-0.047 0.163,-0.122 0.183,-0.19 0.392,-0.067 0.639,-0.372 0.156,-0.193 0.037,-0.15 0.368,-0.186 0.229,-0.411 0.113,-0.036 0.342,-0.343 0.065,-0.087 -0.012,-0.012 0.062,-0.08l0.586 -0.479c0.192,-0.125 0.434,-0.309 0.554,-0.495 0.046,-0.071 0.097,-0.273 0.143,-0.364 -0.702,0.452 0.02,-0.052 -0.617,0.538l-0.077 0.064c-0.327,0.254 0.101,0.047 -0.36,0.319 -0.147,0.087 -0.199,0.212 -0.33,0.315 -0.162,0.126 -0.121,0.021 -0.264,0.197l-0.472 0.349c-0.236,0.087 -0.239,0.073 -0.397,0.252 -0.116,0.133 0.047,0.094 -0.494,0.206 -0.036,0.101 -0.052,0.147 -0.08,0.224zm-18.824 -25.451c-0.026,0.235 0.049,0.256 0.23,0.328 0.154,0.06 0.263,0.089 0.449,0.035 0.082,-0.54 -0.329,-0.542 -0.679,-0.363zm-0.027 -1.209c-0.057,-0.558 -0.052,-0.57 -0.622,-0.624 0.046,0.501 0.126,0.563 0.622,0.624z"/>
   <path class="fil3" d="M27.964 38.074l1.543 -0.08 0.059 -5.137c0.665,-0.079 1.783,-0.014 2.497,-0.013l32.374 0.039c0.118,0 4.819,-0.058 4.916,0.048 0.144,0.155 -0.051,3.175 0.126,4.313l1.497 0.403 0 -6.299 -16.441 0.002c-0.25,-0.001 -0.297,-0.034 -0.508,-0.046 -0.106,-0.007 -0.15,0.003 -0.257,-0.018l-0.201 -0.08 -8.105 0.01c-0.906,0.149 -1.454,0.033 -2.085,0.119 -0.376,0.052 -3.74,0.015 -4.409,0.012 -0.401,-0.002 -0.596,0.087 -1.032,0.02 -0.391,-0.059 -8.936,-0.019 -9.974,-0.019l0 6.726zm41.492 31.712c-0.247,0.799 0.258,1.5 -0.818,2.832 -0.481,0.595 -1.284,1.232 -1.975,1.663 -4.178,2.606 -12.163,4.623 -17.193,4.626 -4.087,0.002 -8.694,-1.181 -12.188,-2.357 -1.749,-0.589 -3.555,-1.396 -4.983,-2.291 -2.305,-1.443 -2.56,-2.057 -2.787,-4.533 -0.416,0.05 -1.12,-0.138 -1.522,-0.04 -0.016,0.694 -0.041,1.396 0.098,2.013 0.141,0.627 0.488,0.967 0.667,1.522 0.193,0.075 0.02,0.034 0.115,0.139l0.129 0.102c0.107,0.101 0.035,0.07 0.101,0.174 0.055,0.088 -0.025,0.022 0.126,0.1 0.124,0.065 0.095,0.025 0.159,0.122 0.199,0.303 0.234,0.135 0.263,0.481l0.212 0.008 0.03 0.249c0.378,0.02 0.36,0.314 0.918,0.419 0.055,0.311 0.042,0.279 0.285,0.397 0.396,0.191 0.151,0.032 0.401,0.25 0.182,0.16 0.279,0.025 0.461,0.187l0.067 0.073c0.272,0.231 0.039,-0.019 0.226,0.249l0.327 0.024c0.108,0.211 0.03,0.175 0.272,0.225 0.343,0.07 0.158,0.002 0.275,0.214l0.388 0.031 0.303 0.021c0.152,0.304 -0.07,0.129 0.332,0.29 0.143,0.058 0.252,0.111 0.341,0.241 -0.023,0.09 -0.01,0.069 -0.082,0.123 0.553,-0.052 1.231,0.144 1.469,0.481 0.501,-0.035 0.467,0.15 0.748,0.182 0.124,0.014 0.32,-0.009 0.453,0.012 0.271,0.043 0.128,0.065 0.285,0.217 0.131,-0.001 0.328,-0.003 0.456,0.013 0.277,0.034 0.18,0.086 0.318,0.177 0.267,0.174 0.446,-0.088 0.678,0.256 0.006,0.008 0.014,0.024 0.022,0.035 0.182,-0.008 0.479,-0.02 0.629,0.035 0.146,0.054 0.075,0.087 0.208,0.132 0.119,0.041 0.176,-0.005 0.313,0.032l0.027 0.187 0.629 0.086 1.277 0.166c0.337,0.033 0.143,0.187 0.455,0.277 0.187,0.055 0.413,0.027 0.596,0.116 0.494,0 1.662,0.266 2.24,0.35 0.766,0.111 0.988,0.207 1.731,0.202 0.283,-0.002 0.396,0.043 0.616,0.047 0.132,-0.059 3.768,-0.055 3.868,0l2.566 -0.272c0.851,-0.097 1.746,-0.419 2.451,-0.419 0.151,-0.132 0.638,-0.212 0.885,-0.24l0.021 -0.002c0.316,-0.096 0.155,0.021 0.341,-0.24 0.205,-0.002 0.568,0.008 0.758,-0.025 0.443,-0.076 -0.141,-0.032 0.561,-0.219 0.211,-0.056 0.426,-0.086 0.658,-0.14 0.509,-0.118 0.396,-0.109 0.491,-0.293 0.145,-0.006 0.304,-0.03 0.388,-0.036 0.147,-0.012 0.232,0.03 0.425,0.03l0.1 -0.236 0.482 -0.014c0.162,-0.281 0.289,-0.236 0.724,-0.237 0.204,-0.076 0.054,0.053 0.138,-0.205l0.507 -0.014 0.108 -0.22 0.49 -0.019 0.123 -0.203c0.634,-0.033 0.412,-0.033 0.522,-0.197 0.269,-0.006 0.525,-0.097 0.715,0.032 -0.034,-0.065 -0.023,-0.033 -0.019,-0.138 0.269,-0.164 0.522,-0.402 0.998,-0.351 0.041,-0.297 0.26,-0.44 0.568,-0.479l0.317 -0.032 0.083 -0.182c0.028,-0.077 0.044,-0.123 0.08,-0.224 0.541,-0.112 0.378,-0.073 0.494,-0.206 0.158,-0.179 0.161,-0.165 0.397,-0.252l0.472 -0.349c0.143,-0.176 0.102,-0.071 0.264,-0.197 0.131,-0.103 0.183,-0.228 0.33,-0.315 0.461,-0.272 0.033,-0.065 0.36,-0.319l0.077 -0.064c0.637,-0.59 -0.085,-0.086 0.617,-0.538l0.007 0.007c0.039,-0.34 0.138,-0.162 0.305,-0.342 0.03,-0.033 0.169,-0.355 0.194,-0.406 0.145,-0.287 0.292,-0.528 0.388,-0.856 0.224,-0.765 0.179,-1.481 0.156,-2.316 -0.322,-0.058 -1.124,0.166 -1.508,0.171zm1.219 -8.422l0.271 -0.039c0.071,-0.277 0.082,-20.758 0.002,-21.09l-1.317 -0.12 -0.208 0.058c-0.062,1.182 -0.005,3.955 -0.005,5.312l-0.002 10.683c0,0.895 -0.106,4.747 0.055,5.279 0.293,0.051 0.884,-0.046 1.204,-0.083zm-42.711 -19.637l0 19.679c0.201,0.061 0.703,0.046 0.968,0.049l0.615 -0.007 0.009 -19.675c-0.299,-0.116 -1.166,-0.065 -1.536,-0.043l-0.056 -0.003z"/>
   <path class="fil4" d="M63.424 77.559c-0.061,0.077 -0.065,0.183 -0.19,0.237 -0.115,0.051 -0.278,0.028 -0.409,0.036 -0.04,0.05 -0.03,0.026 -0.07,0.104 -0.004,0.009 -0.017,0.054 -0.022,0.068l-0.645 0.01c-0.103,0.137 0.003,0.139 -0.152,0.195 -0.038,0.013 -0.309,0.01 -0.369,0.011 -0.261,0.281 -0.188,0.3 -0.998,0.293 -0.009,0.011 -0.02,0.014 -0.025,0.034 -0.044,0.198 -0.427,0.173 -0.502,0.176 -0.282,0.462 -0.326,0.006 -0.744,0.376 -0.006,0.434 0.077,0.367 0.834,0.805 3.974,2.297 12.369,4.92 16.999,5.704 0.39,0.065 1.076,0.212 1.443,0.202 -0.034,-0.493 -1.383,-2.928 -1.683,-3.461 -0.553,-0.983 -1.209,-2.154 -1.636,-3.194 -0.039,-0.094 -0.081,-0.194 -0.18,-0.215 -2.197,0.01 -3.921,0.034 -6.011,-0.264 -1.351,-0.192 -2.537,-0.502 -3.759,-0.999 -0.48,-0.195 -0.705,-0.334 -1.328,-0.308 -0.009,0.01 -0.019,0.016 -0.023,0.035l-0.045 0.062c-0.006,0.006 -0.015,0.019 -0.021,0.026 -0.103,0.097 -0.224,0.059 -0.464,0.067zm-22.785 1.626l-0.629 -0.086 -0.027 -0.187c-0.299,-0.018 -0.615,0.039 -0.838,-0.125 -0.311,-0.228 0.222,0.06 -0.082,-0.066 -0.353,0.024 -0.619,0.035 -0.826,-0.131 -0.203,-0.163 -0.035,-0.118 -0.373,-0.135 -0.095,-0.005 -0.111,0.015 -0.194,-0.033 -0.106,-0.061 -0.014,0.002 -0.069,-0.071l-0.702 -0.15c-0.09,-0.176 0.175,-0.286 -0.649,-0.114 -1.753,0.366 -3.405,0.805 -5.199,1.107 -1.034,0.174 -2.141,0.341 -3.225,0.374 -1.19,0.037 -2.336,-0.086 -3.517,-0.021 -0.353,0.308 -2.59,5.745 -2.714,6.563 2.891,-0.147 7.528,-1.721 10.214,-2.754 2.315,-0.89 4.579,-1.869 6.774,-2.938 0.389,-0.19 0.725,-0.34 1.094,-0.521 0.297,-0.146 0.866,-0.413 0.962,-0.712zm-7.129 -2.52l-0.388 -0.031c-0.117,-0.212 0.068,-0.144 -0.275,-0.214 -0.242,-0.05 -0.164,-0.014 -0.272,-0.225l-0.327 -0.024c-0.187,-0.268 0.046,-0.018 -0.226,-0.249l-0.067 -0.073c-0.182,-0.162 -0.279,-0.027 -0.461,-0.187 -0.25,-0.218 -0.005,-0.059 -0.401,-0.25 -0.243,-0.118 -0.23,-0.086 -0.285,-0.397 -0.558,-0.105 -0.54,-0.399 -0.918,-0.419l-0.03 -0.249 -0.212 -0.008c-0.029,-0.346 -0.064,-0.178 -0.263,-0.481 -0.064,-0.097 -0.035,-0.057 -0.159,-0.122 -0.151,-0.078 -0.071,-0.012 -0.126,-0.1 -0.066,-0.104 0.006,-0.073 -0.101,-0.174l-0.129 -0.102c-0.095,-0.105 0.078,-0.064 -0.115,-0.139 -0.565,0.042 -1.288,0.041 -1.85,0.047 -4.571,0.045 -4.735,-2.602 -5.358,-1.001 -0.185,0.473 -0.372,0.839 -0.477,1.363 -0.232,1.153 0.265,2.123 0.786,2.783 1.156,1.465 3.184,1.786 5.74,1.663 1.248,-0.06 4.216,-0.554 5.668,-0.817 0.572,-0.104 0.572,-0.133 0.582,-0.324 -0.138,-0.108 -0.107,-0.007 -0.228,-0.085 -0.135,-0.086 -0.024,-0.019 -0.108,-0.185zm10.847 -57.797c-0.05,1.176 0.095,2.311 -0.02,3.532 -0.151,1.599 -0.091,1.948 0.294,3.339l0.659 0.001c-0.097,-0.547 -0.94,-1.483 -0.317,-2.573 0.229,-0.399 0.539,-0.438 0.513,-1.121 -0.02,-0.509 -0.221,-0.947 -0.262,-1.449 0.678,-0.01 0.881,0.248 1.449,0.231l-0.163 -2.337c0.386,0.148 1.449,1.781 1.769,2.215 0.456,0.621 0.867,1.081 1.138,1.807 0.068,0.184 0.167,0.651 0.284,0.704 0.112,-0.05 0.332,-0.83 0.379,-1.018 0.108,-0.44 0.159,-0.866 0.142,-1.35 -0.028,-0.817 -0.216,-1.811 -0.352,-2.61 -0.041,-0.24 -0.183,-0.625 -0.277,-1.183 -0.15,-0.89 -0.195,-1.885 -0.184,-2.792 0.008,-0.689 0.084,-0.727 0.236,-1.258 0.637,0.034 0.695,0.352 0.908,0.822 0.584,1.292 0.734,2.703 1.157,3.958 0.343,-0.07 0.505,-0.587 0.634,-0.881 0.233,-0.533 0.29,-0.863 0.396,-1.118 0.47,0.191 0.341,1.524 0.35,2.115 0.007,0.416 0,0.828 -0.005,1.244 -0.005,0.474 -0.074,0.765 -0.095,1.225 0.206,-0.157 0.339,-0.643 0.514,-1.016l1.331 -2.445c0.109,-0.11 0.109,-0.049 0.239,-0.132 0.105,-0.067 0.11,-0.119 0.239,-0.159 0.219,0.476 -0.098,4.173 -0.288,4.999 -0.047,0.206 -0.264,0.323 -0.08,0.983 0.045,-0.052 0.019,-0.003 0.077,-0.111 0.03,-0.055 0.039,-0.085 0.066,-0.161 0.58,-1.602 0.554,-2.54 0.494,-4.335 -0.011,-0.328 -0.029,-1.44 -0.093,-1.643 -0.525,-0.041 -0.677,0.259 -1.229,0.224 -0.367,-0.023 -0.799,-0.22 -0.987,-0.497 -0.322,-0.478 -0.136,-0.688 -0.376,-1.094 -0.093,-0.157 -0.092,-0.399 -0.159,-0.58 -0.068,-0.183 -0.149,-0.314 -0.269,-0.467 -0.394,-0.501 -1.05,-0.864 -1.647,-1.3 -0.908,-0.665 -1.28,-1.421 -1.536,-1.457 -0.521,0.9 -0.272,1.581 -1.074,2.793 -0.507,0.766 -1.264,1.59 -1.645,2.223 -0.738,1.227 -0.6,2.196 -0.644,3.688 -0.012,0.382 0.069,0.647 -0.598,-0.047 -0.158,-0.163 -0.873,-0.922 -0.968,-0.969zm25.564 54.667l-0.007 -0.007c-0.046,0.091 -0.097,0.293 -0.143,0.364 -0.12,0.186 -0.362,0.37 -0.554,0.495l-0.586 0.479c-0.074,0.068 0.003,-0.007 -0.062,0.08 -0.229,0.307 -0.113,-0.068 -0.342,0.343 -0.331,0.036 -0.212,-0.007 -0.368,0.186 -0.247,0.305 -0.456,0.182 -0.639,0.372 -0.072,0.075 0.06,0.057 -0.163,0.122 -0.087,0.026 -0.152,0.02 -0.234,0.023l-0.083 0.182 -0.317 0.032c-0.062,0.465 0.343,0.433 0.75,0.526 2.375,0.543 5.365,1.089 7.746,0.639 4.18,-0.789 3.896,-5.034 2.919,-5.87 -0.224,0.039 -1.289,0.611 -1.598,0.75 -1.457,0.656 -3.282,0.948 -4.895,1.01 -0.282,0.011 -0.871,-0.02 -1.097,0.031 -0.217,0.076 0.044,0.166 -0.327,0.243zm-12.576 5.875l-0.021 0.002c0.034,0.39 0.361,0.468 0.998,0.828 1.525,0.861 1.973,1.105 3.662,1.911 4.894,2.335 8.816,3.36 14.004,4.564 0.81,0.188 2.338,0.49 3.216,0.473 0.09,-1.021 -0.989,-0.775 -2.547,-1.11 -5.288,-1.137 -9.176,-2.202 -14.141,-4.411 -1.567,-0.697 -2.225,-1.071 -3.651,-1.878 -0.614,-0.347 -0.645,-0.412 -1.52,-0.379zm-36.303 8.036c1.677,0.05 4.468,-0.816 5.954,-1.257 3.364,-0.997 7.288,-2.484 10.361,-4.002 0.28,-0.138 4.511,-2.188 4.657,-2.538 -0.522,-0.233 -0.934,0.096 -1.361,0.304 -1.181,0.575 -2.392,1.288 -3.591,1.802 -4.46,1.914 -8.662,3.665 -13.48,4.615 -1.956,0.385 -2.522,0.051 -2.54,1.076zm30.17 -61.673l3.07 0.045c0.024,-0.443 -0.299,-0.285 -0.713,-0.321 -0.12,-0.197 -0.222,-0.549 -0.313,-0.786 -0.11,-0.283 -0.223,-0.534 -0.328,-0.821 -0.296,-0.811 -0.308,-1.024 -0.306,-2.001 -0.129,0.138 -0.15,0.269 -0.219,0.467 -0.265,0.75 -1.185,2.967 -1.191,3.417zm16.227 39.593c-0.963,0.247 -0.578,1.967 0.466,1.685 0.871,-0.236 0.601,-1.958 -0.466,-1.685zm-16.034 2.13c-0.046,0.303 0.036,1.285 0.072,1.635 0.239,0.05 0.68,0.024 0.88,-0.083 0.236,-0.127 0.273,-0.421 0.256,-0.772 -0.017,-0.33 -0.084,-0.604 -0.293,-0.728 -0.182,-0.108 -0.68,-0.127 -0.915,-0.052zm12.958 -1.771c-0.043,0.233 0.157,1.35 0.198,1.656 0.793,-0.024 1.163,-0.099 1.038,-0.964 -0.116,-0.798 -0.431,-0.791 -1.236,-0.692zm-28.528 2.102c0.794,0.173 1.134,0.216 1.294,-0.609 0.15,-0.777 -0.202,-1.023 -0.968,-1.019l-0.326 1.628zm5.153 0.772c0.803,0.068 1.119,0.183 1.239,-0.714 0.108,-0.807 -0.291,-0.946 -1.047,-0.943l-0.192 1.657zm15.318 -1.451l0.05 0.577c0.023,0.006 0.041,-0.001 0.048,0.014l0.272 0.019c0.11,-0.012 0.231,-0.025 0.341,-0.039 0.241,-0.031 0.421,-0.07 0.432,-0.317 0.023,-0.502 -0.763,-0.308 -1.143,-0.254zm-26.019 -1.266c0.278,0.128 0.79,0.143 1.053,0.057 0.112,-0.243 0.139,-0.461 -0.164,-0.552 -0.165,-0.05 -0.626,-0.104 -0.805,-0.097l-0.084 0.592zm45.873 -0.082c0.314,0.089 0.598,0.34 0.985,0.259 0.105,-0.127 0.152,-0.173 0.133,-0.412 -0.183,-0.172 -0.604,-0.387 -0.867,-0.437 -0.093,0.136 -0.22,0.406 -0.251,0.59zm-5.345 -0.074c0.745,0.117 1.176,-0.376 0.798,-0.663 -0.12,-0.09 -0.609,-0.097 -0.768,-0.039 -0.153,0.056 -0.118,0.048 -0.087,0.285 0.019,0.136 0.039,0.279 0.057,0.417zm-11.715 2.184l0.685 -0.08c-0.022,-0.243 -0.347,-0.644 -0.458,-0.841 -0.085,0.113 -0.093,0.249 -0.13,0.426 -0.035,0.172 -0.076,0.324 -0.097,0.495zm14.115 -1.976l0.707 -0.001 -0.346 -0.885c-0.155,0.2 -0.298,0.611 -0.361,0.886zm-34.578 1.763l0.684 0.091c-0.026,-0.263 -0.075,-0.742 -0.222,-0.925l-0.462 0.834zm40.208 0.304c0.061,0.178 0.283,0.437 0.475,0.518l0.427 -0.819 -0.902 0.301zm-38.453 0.96c-0.037,-0.375 0.229,-2.037 0.305,-2.509 0.303,-0.012 1.326,0.121 1.565,0.241 0.417,0.209 0.613,0.662 0.525,1.304 -0.184,1.353 -1.194,1.083 -2.395,0.964zm-1.464 -2.766l0.592 0.075 0.636 2.669 -0.544 -0.098c-0.284,-0.46 0.269,-0.663 -1.245,-0.74l-0.317 0.5c-0.175,0.008 -0.425,-0.015 -0.549,-0.097l1.427 -2.309zm11.876 0.889c1.265,-0.098 2.311,-0.241 2.387,1.151 0.076,1.381 -1.033,1.4 -2.248,1.371l-0.139 -2.522zm26.639 0.918c0.115,-0.124 1.188,-0.45 1.466,-0.541 1.034,-0.339 1.058,-0.507 1.368,-0.146 0.209,0.242 0.072,0.323 -0.095,0.636l-1.03 1.974 -0.372 -0.411 0.266 -0.545c-0.166,-0.315 -0.469,-0.507 -0.655,-0.791l-0.642 0.189 -0.306 -0.365zm-28.871 -0.904c0.267,-0.067 1.677,-0.017 2.051,-0.003l0.002 0.424 -1.499 0.007 0.009 0.54 1.378 0.044 -0.004 0.396 -1.401 0.009 0.011 0.673 1.531 0.032 0.001 0.408 -2.113 -0.018 0.034 -2.512zm-2.09 -0.113l1.885 0.079 -0.011 0.429 -1.339 -0.033 -0.015 0.575 1.141 0.061 -0.019 0.415 -1.161 -0.019 -0.05 1.012c-0.169,0.054 -0.374,0.029 -0.564,0.002l0.133 -2.521zm-26.785 2.607l-1.235 -0.992c0.053,-0.17 0.17,-0.268 0.292,-0.393 0.186,0.074 0.737,0.564 0.955,0.728 0.315,0.237 0.69,0.664 1.096,0.196 0.534,-0.614 -0.667,-1.016 -1.354,-1.728 0.065,-0.159 0.19,-0.3 0.317,-0.385 0.206,0.109 0.457,0.341 0.638,0.483 0.891,0.702 1.452,1.004 0.739,1.924 -0.392,0.506 -0.851,0.607 -1.448,0.167zm33.64 -2.597c0.438,-0.037 1.679,-0.196 2.04,-0.142l0.018 0.4 -1.466 0.125 0.055 0.531c0.382,0.06 0.917,-0.074 1.335,-0.069l0.078 0.226c0.014,0.148 0.009,0.116 -0.036,0.159 -0.075,0.072 -0.329,0.055 -0.437,0.064 -0.308,0.026 -0.594,0.048 -0.907,0.081l0.076 0.681 1.537 -0.113 0.031 0.412 -2.097 0.169 -0.227 -2.524zm-17.664 -1.32c1.209,0.095 2.317,0.254 2.007,1.685 -0.107,0.494 -0.376,0.887 -0.85,0.983 -0.318,0.064 -1.345,-0.087 -1.61,-0.205l0.453 -2.463zm7.264 3.556c-0.058,-0.287 0.154,-2.083 0.197,-2.507 0.271,-0.045 1.642,0.097 2.005,0.144l-0.045 0.419 -1.452 -0.097 -0.041 0.54 1.335 0.134 -0.017 0.401 -1.365 -0.088 -0.04 0.67 1.483 0.132 -0.037 0.419 -2.023 -0.167zm16.587 -2.902c0.165,0.42 1.343,1.936 1.474,2.333l-0.579 0.078 -0.311 -0.511c-0.154,0 -0.945,0.09 -1.124,0.193l-0.114 0.555c-0.307,0.056 -0.78,0.142 -1.104,0.122 -0.125,-0.178 -0.385,-0.431 -0.544,-0.605 -0.208,-0.228 -0.322,-0.356 -0.806,-0.302l0.107 1.054 -0.553 0.038 -0.268 -2.508c0.497,-0.06 1.615,-0.243 1.99,-0.041 0.202,0.11 0.407,0.408 0.315,0.78 -0.091,0.365 -0.344,0.337 -0.562,0.533 0.229,0.176 0.267,0.157 0.456,0.366 0.109,0.121 0.29,0.358 0.428,0.429l0.589 -2.442 0.606 -0.072zm21.201 0.493l0.323 0.386c-0.144,0.006 -0.445,0.009 -0.582,-0.007 -0.187,-0.022 -0.211,-0.13 -0.306,-0.249l0.565 -0.13zm-20.037 -0.616c0.139,-0.072 0.348,-0.095 0.53,-0.107l0.434 2.028 1.374 -0.222 0.057 0.396c-0.438,0.084 -1.535,0.341 -1.9,0.328l-0.495 -2.423zm6.538 -1.242c1.875,-0.535 2.411,2.092 0.863,2.501 -0.857,0.226 -1.487,-0.163 -1.684,-0.833 -0.251,-0.856 0.109,-1.465 0.821,-1.668zm6.053 -0.556l0.506 -0.008c0.144,0.04 1.134,2.406 1.147,2.529l-0.559 0 -0.265 -0.563c-1.146,-0.076 -1.095,-0.057 -1.281,0.578l-0.585 -0.006 1.037 -2.53zm2.804 0.185c0.303,0.075 1.41,0.584 1.573,0.736 0.23,0.215 0.253,0.573 0.072,0.859 -0.182,0.286 -0.387,0.306 -0.841,0.302 0.186,0.407 0.28,0.816 0.314,1.336 -0.602,-0.156 -0.561,-0.213 -0.68,-0.814 -0.088,-0.443 -0.09,-0.779 -0.566,-0.844l-0.42 0.909c-0.172,-0.009 -0.364,-0.114 -0.494,-0.191l1.042 -2.293zm-41.212 0.954l0.507 0.107c0.004,0.214 -0.424,2.339 -0.507,2.475l-0.513 -0.094 0.513 -2.488zm-5.323 1.743c-0.038,-0.251 0.279,-2.129 0.346,-2.513 0.436,0.041 1.579,0.149 1.854,0.362 0.199,0.154 0.347,0.481 0.18,0.842 -0.124,0.268 -0.356,0.356 -0.704,0.4 0.161,0.251 0.568,0.707 0.673,1.221l-0.605 -0.077c-0.154,-0.253 -0.269,-0.516 -0.414,-0.779 -0.136,-0.247 -0.383,-0.546 -0.669,-0.383l-0.148 0.987 -0.513 -0.06zm34.224 -1.927c0.44,-0.054 1.293,-0.229 1.676,-0.077 0.398,0.158 0.639,0.547 0.717,1.073 0.2,1.349 -1.004,1.505 -2.05,1.515 -0.103,-0.186 -0.414,-2.31 -0.343,-2.511zm-31.182 1.469c0.09,0.329 0.125,0.493 0.447,0.57 0.309,0.074 0.731,-0.016 0.636,-0.353 -0.077,-0.273 -0.951,-0.402 -1.211,-0.828 -0.736,-1.204 2.151,-1.4 1.894,-0.028 -0.606,-0.118 -0.463,-0.048 -0.556,-0.25 -0.032,-0.069 -0.008,-0.056 -0.061,-0.123 -0.048,-0.061 -0.134,-0.104 -0.236,-0.133 -0.095,-0.027 -0.218,-0.047 -0.331,-0.034 -0.191,0.02 -0.178,0.042 -0.239,0.146 -0.116,0.312 0.627,0.485 0.932,0.678 0.373,0.236 0.557,0.716 0.195,1.128 -0.484,0.55 -2.132,0.259 -1.969,-0.824l0.499 0.051zm-10.932 -0.02c0.116,0.435 0.57,0.982 0.7,1.44l-0.44 0.185 -1.135 -2.231c0.459,-0.387 0.639,-0.127 1.066,0.128 0.279,0.167 0.797,0.513 1.09,0.602l-0.725 -1.46 0.428 -0.196 1.157 2.246c-0.547,0.362 -0.568,0.179 -1.087,-0.121 -0.291,-0.168 -0.763,-0.478 -1.054,-0.593zm2.177 -1.888l0.769 2.402 -0.462 0.129c-0.175,-0.213 -0.328,-0.89 -0.426,-1.185 -0.107,-0.321 -0.342,-0.921 -0.379,-1.223l0.498 -0.123zm46.605 2.242c-0.071,-0.611 -0.148,-1.207 -0.222,-1.802 -0.101,-0.805 -0.373,-0.719 1.08,-0.817 0.661,-0.044 1.149,0.301 0.986,0.995 -0.132,0.566 -0.784,0.567 -1.401,0.642l0.099 0.956 -0.542 0.026zm-43.221 -0.107c-0.007,-0.012 -0.013,-0.029 -0.016,-0.039l0.187 -2.454c0.247,-0.063 1.627,0.1 2.004,0.13l-0.031 0.423c-0.354,-0.008 -1.194,-0.142 -1.467,-0.085l-0.044 0.531 1.344 0.118 -0.034 0.386c-0.36,0.068 -0.921,-0.088 -1.336,-0.056 -0.067,0.169 -0.092,0.481 -0.059,0.668l1.483 0.128 -0.03 0.381c-0.174,0.065 -1.741,-0.085 -2.001,-0.131zm-1.455 -0.682c0.248,-0.518 0.346,-1.381 0.588,-1.868l0.548 -0.01 -0.83 2.572 -0.596 0.015c-0.174,-0.559 -1.013,-2.155 -1.059,-2.482l0.556 -0.009c0.304,0.451 0.496,1.304 0.793,1.782zm-6.273 6.773c0.079,-0.086 0.614,-1.36 0.74,-1.599 0.835,-1.58 1.985,-2.712 3.917,-3.226 2.449,-0.652 6.11,-0.046 8.487,0.43 1.339,0.268 2.693,0.473 4.027,0.723 4.12,0.773 8.623,1.362 12.901,1.33 2.997,-0.022 6.053,-0.186 8.891,-0.588 2.746,-0.389 5.418,-0.796 8.085,-1.4 2.057,-0.465 6.218,-1.338 8.397,-1.082 1.787,0.211 3.417,1.474 4.248,2.878 0.33,0.558 0.468,1.138 0.733,1.656 0.411,-0.494 1.087,-3.322 1.436,-4.261 0.322,-0.865 0.246,-0.484 -0.718,-1.793 -0.378,-0.513 -0.966,-1.074 -1.463,-1.436 -1.074,-0.78 -2.294,-1.548 -3.776,-1.981 -1.572,-0.459 -3.461,-0.461 -5.216,-0.186l-9.881 1.619c-4.694,0.766 -11.139,1.403 -15.998,0.634 -1.658,-0.262 -3.312,-0.489 -4.945,-0.801 -1.616,-0.309 -3.24,-0.574 -4.889,-0.861 -1.717,-0.299 -3.383,-0.435 -5.178,-0.564 -1.725,-0.124 -3.726,0.063 -5.269,0.446 -1.602,0.398 -2.794,1.039 -3.822,1.937 -0.758,0.662 -1.928,2.29 -2.038,3.714 -0.074,0.964 0.089,1.713 0.371,2.483 0.178,0.488 0.657,1.709 0.96,1.928z"/>
   <path class="fil5" d="M49.715 25.715l1.025 0.046c0.303,-0.477 0.61,-1.333 0.82,-1.903 0.631,-1.707 0.908,-2.448 1.131,-4.316 0.07,-0.584 0.113,-1.354 0.084,-1.964l-0.053 -0.53c-0.003,-0.009 -0.011,-0.025 -0.013,-0.033 -0.003,-0.007 -0.008,-0.022 -0.015,-0.031 -0.174,0.302 -0.753,1.569 -1.269,1.591 -0.134,-1.267 -0.766,-4.88 -1.622,-5.224 -0.17,1.695 0.066,3.136 0.299,4.785 0.068,0.475 0.208,0.952 0.278,1.49 0.449,3.403 -0.991,3.884 -0.665,6.089zm-2.835 -3.442c-0.545,-0.577 -0.256,-0.909 -1.122,-1.215 -0.026,0.25 0.071,0.778 0.09,1.08 0.033,0.541 0.018,0.639 -0.309,0.904 -0.463,0.377 -0.419,1.298 -0.151,1.89 0.321,0.707 0.57,0.884 1.505,0.872 0.775,-0.011 1.608,-0.012 2.387,-0.04 0.242,-1.125 0.04,-2.691 -0.443,-3.545 -0.373,-0.657 -1.287,-1.976 -1.748,-2.319 -0.099,0.556 -0.036,2.191 -0.209,2.373zm3.698 62.164l-0.676 -0.02 -0.024 -3.155 -0.055 -0.715 -0.724 -0.003 0.021 3.896 -0.741 -0.008c-0.076,-0.104 -0.045,-0.039 -0.053,-0.218 -0.052,-1.007 0.057,-2.58 -0.013,-3.679l-0.417 -0.012c-0.048,0.746 -0.011,1.638 -0.008,2.398 0.001,0.324 0.076,2.129 -0.048,2.285 -0.145,0.085 -0.447,0.053 -0.636,0.057l0 0.734 4.54 0.002 0.004 -0.705 -0.678 0 0.002 -4.708c-0.132,-0.073 -0.254,-0.096 -0.434,-0.053 -0.031,0.595 0.062,3.65 -0.06,3.904zm-6.162 -54.805c0.684,0.059 4.123,0.011 5.1,0.01 0.805,-0.001 4.564,0.06 5.051,-0.051 0.008,-0.267 0.075,-0.619 -0.019,-0.835 -0.107,-0.047 -9.374,-0.084 -10.133,-0.007l0.001 0.883zm8.501 -7.171c0,0.567 0.165,0.999 0.352,1.452l0.53 1.279 0.464 -0.015c0.197,-2.079 0.979,-5.819 0.769,-7.77 -0.422,0.28 -1.04,1.584 -1.326,2.244 -0.33,0.765 -0.788,1.843 -0.789,2.81zm-7.948 5.812l9.077 -0.018 0.002 -0.887 -9.084 0.015 0.005 0.89zm0.725 2.703l7.649 0.046 -0.012 -0.865 -7.644 -0.019 0.007 0.838zm2.061 57.292l3.45 -0.003 -0.019 -1.471c-0.503,-0.104 -2.788,-0.034 -3.431,-0.015l0 1.489zm-0.362 1.408l4.181 -0.048 -0.008 -0.655c-0.437,-0.112 -3.494,-0.001 -4.188,0.01l0.015 0.693z"/>
  </g>
 </g>
</svg>
